<svg width="26" height="26" viewBox="0 0 26 26" fill="none" xmlns="http://www.w3.org/2000/svg">
  <g clip-path="url(#clip0_4697_826)">
    <path d="M25.9934 4.21502C25.9911 3.64689 25.8739 3.08519 25.6489 2.5641C25.2104 1.5377 24.3871 0.726944 23.358 0.308013C22.8636 0.105142 22.3348 0.000544819 21.801 0L4.13953 0C3.57714 0.0084312 3.02258 0.134024 2.51081 0.368861C1.50395 0.813522 0.712268 1.64027 0.307935 2.66929C0.1069 3.16771 0.00238001 3.70021 1.08066e-06 4.23813V21.6977C-0.000412724 22.2921 0.118018 22.8805 0.348243 23.4279C0.579334 23.9775 0.925808 24.4704 1.36391 24.8727L1.3611 24.876C1.74464 25.2325 2.19057 25.5143 2.67626 25.7071C3.16056 25.8996 3.67646 25.999 4.19718 26H21.8028C22.8919 25.9989 23.9373 25.5693 24.7158 24.8029C25.1203 24.405 25.4422 23.9302 25.6626 23.4061C25.8831 22.8819 25.9978 22.3188 26 21.7496V4.21502H25.9934ZM4.19905 24.2996C3.56945 24.2996 2.9629 24.0612 2.50003 23.6316C1.93056 23.1062 1.68731 22.4015 1.68731 21.6977V4.23766C1.689 3.83384 1.78535 3.43612 1.96853 3.07683C1.99634 3.02337 2.02539 2.97102 2.0557 2.91976C2.07961 2.88061 2.10257 2.84193 2.13023 2.80419C2.14335 2.78391 2.15694 2.7641 2.17147 2.74429L2.19866 2.7075C2.231 2.66316 2.26568 2.61976 2.30177 2.57731C2.32802 2.54665 2.3552 2.51646 2.38285 2.48675C2.39785 2.47071 2.41332 2.45467 2.42972 2.43958C2.91014 1.9561 3.586 1.69808 4.13953 1.69808H7.70162V5.94329L12.1074 8.64796V6.66686L9.38424 4.99283V1.69808L18.1072 7.04516L6.02041 14.4545V21.4694L10.6403 24.2996H4.19905ZM18.326 12.1517L10.4904 16.953L7.83192 15.3242L18.3181 8.89606V12.1507L18.326 12.1517ZM24.3136 21.7487C24.3157 22.4189 24.0552 23.0629 23.5886 23.5411L23.5417 23.5882C23.0763 24.0456 22.4515 24.3016 21.801 24.3014H18.3143V17.8157L16.634 18.8459V25.9995L16.6064 25.9825L16.5417 25.9429L14.5624 24.7246L14.553 24.7189L7.70069 20.5209V17.2256L14.9514 21.6642V19.6831L12.1064 17.9431L20.0002 13.1073V6.2263L19.7813 6.09234L19.7242 6.05697L18.9916 5.60792L12.6145 1.69808H21.801C22.0532 1.69943 22.3037 1.73886 22.5443 1.81506C22.6034 1.83346 22.661 1.85421 22.7177 1.87685C22.7552 1.89195 22.7927 1.90798 22.8297 1.92402L22.8846 1.94996C22.9211 1.96789 22.9572 1.98628 22.9924 2.00562L23.0453 2.03534C23.2366 2.14659 23.4127 2.2823 23.5693 2.43911C23.5975 2.46741 23.6251 2.49665 23.6523 2.52637C23.6795 2.55609 23.7053 2.5858 23.7315 2.61693C23.7568 2.64759 23.7817 2.6792 23.806 2.71127L23.8417 2.75844C24.1439 3.18247 24.309 3.6899 24.3146 4.21172L24.3136 21.7487Z" fill="#A1A1A5"/>
    <path d="M2.38179 2.48565C2.35414 2.51536 2.32696 2.54555 2.30118 2.57621C2.32742 2.54555 2.35461 2.51536 2.38226 2.48565C2.39726 2.46961 2.41273 2.45357 2.42913 2.43848L2.38179 2.48565ZM1.96887 3.0762C1.99668 3.02274 2.02574 2.97039 2.05605 2.91913C2.02449 2.9707 1.99543 3.02306 1.96887 3.0762Z" fill="#A1A1A5"/>
  </g>
  <defs>
    <clipPath id="clip0_4697_826">
      <rect width="26" height="26" fill="white"/>
    </clipPath>
  </defs>
</svg>

