<svg width="36" height="36" viewBox="0 0 36 36" fill="none" xmlns="http://www.w3.org/2000/svg">
<rect x="1" y="1" width="34" height="34" rx="17" fill="#FFF2E7" stroke="white" strokeWidth="2"/>
<g clip-path="url(#clip0_2_26)">
<path d="M26.7321 23.0596L25.6425 22.3279L24.7994 21.2097L25.59 20.1041L24.9315 19.4949L24.1393 16.7367L24.7135 15.1158L24.4241 13.9611L20.639 12.4409L19.5376 12.7299L19.0142 13.3375L18.2825 13.5363L18.1123 14.0978L16.5773 14.3492L14.2406 13.1912L13.2687 10.9531L12.1315 11.7405L11.2773 11.5718L10.8192 10.8449L10.1289 11.0231L10.5298 13.8576L11.5302 15.5422L11.1039 16.013L11.061 17.2776L11.5047 18.0252L12.6341 18.9971L12.6643 20.1789L13.4835 21.3147L14.8197 21.0872L16.2115 23.61L18.2301 24.8173L19.2672 25.0273L20.7258 24.2463L21.3764 24.5978L21.7056 25.7287L23.5762 26.0166L25.3132 26.155L25.8795 26.0357L26.037 24.9986L26.8673 24.5023L26.7321 23.0596Z" fill="#FF9606"/>
</g>
<defs>
<clipPath id="clip0_2_26">
<rect width="17" height="17" fill="white" transform="translate(10 10)"/>
</clipPath>
</defs>
</svg>
