<svg width="36" height="36" viewBox="0 0 36 36" fill="none" xmlns="http://www.w3.org/2000/svg">
<rect x="1" y="1" width="34" height="34" rx="17" fill="#F5FBED" stroke="white" strokeWidth="2"/>
<path d="M15.3984 18.3341L17.3013 20.2449L21.1149 16.4233" stroke="#81CF33" strokeWidth="1.5" strokeLinecap="round" strokeLinejoin="round"/>
<path d="M17.272 10.7937C17.8168 10.3279 18.709 10.3279 19.2617 10.7937L20.5092 11.8675C20.746 12.0728 21.1882 12.2386 21.504 12.2386H22.8463C23.6832 12.2386 24.3702 12.9256 24.3702 13.7625V15.1048C24.3702 15.4127 24.536 15.8627 24.7413 16.0996L25.8151 17.3471C26.2809 17.8919 26.2809 18.7841 25.8151 19.3368L24.7413 20.5843C24.536 20.8212 24.3702 21.2633 24.3702 21.5792V22.9214C24.3702 23.7584 23.6832 24.4453 22.8463 24.4453H21.504C21.1961 24.4453 20.746 24.6111 20.5092 24.8164L19.2617 25.8902C18.7169 26.356 17.8246 26.356 17.272 25.8902L16.0244 24.8164C15.7876 24.6111 15.3454 24.4453 15.0296 24.4453H13.6636C12.8267 24.4453 12.1398 23.7584 12.1398 22.9214V21.5713C12.1398 21.2633 11.974 20.8212 11.7766 20.5843L10.7106 19.3289C10.2527 18.7841 10.2527 17.8998 10.7106 17.355L11.7766 16.0996C11.974 15.8627 12.1398 15.4206 12.1398 15.1127V13.7546C12.1398 12.9177 12.8267 12.2307 13.6636 12.2307H15.0296C15.3375 12.2307 15.7876 12.0649 16.0244 11.8596L17.272 10.7937Z" stroke="#81CF33" strokeWidth="1.5" strokeLinecap="round" strokeLinejoin="round"/>
</svg>
