<svg width="36" height="36" viewBox="0 0 36 36" fill="none" xmlns="http://www.w3.org/2000/svg">
<rect x="1" y="1" width="34" height="34" rx="17" fill="#FFF5DE" stroke="white" strokeWidth="2"/>
<path d="M21.7457 23.7167H15.1369C14.6166 23.7167 14.0893 23.3441 13.9136 22.8589L11.0029 14.7104C10.6443 13.6839 10.9044 13.2129 11.1857 13.002C11.4669 12.791 11.9942 12.6645 12.8801 13.2972L15.622 15.2588C15.7064 15.308 15.7837 15.3291 15.84 15.315C15.9032 15.2939 15.9525 15.2377 15.9876 15.1393L17.225 11.8419C17.5976 10.8576 18.146 10.71 18.4413 10.71C18.7366 10.71 19.285 10.8576 19.6576 11.8419L20.895 15.1393C20.9301 15.2307 20.9794 15.2939 21.0426 15.315C21.1059 15.3361 21.1832 15.315 21.2606 15.2518L23.8338 13.4168C24.7759 12.7418 25.3243 12.8754 25.6266 13.0934C25.9219 13.3183 26.1961 13.8175 25.8094 14.9073L22.969 22.8589C22.7933 23.3441 22.266 23.7167 21.7457 23.7167ZM11.8887 13.93C11.9028 14.0284 11.9309 14.169 12.0012 14.3518L14.9119 22.5004C14.94 22.5707 15.0666 22.6621 15.1369 22.6621H21.7457C21.823 22.6621 21.9496 22.5707 21.9707 22.5004L24.8111 14.5557C24.9095 14.2886 24.9376 14.1058 24.9446 14.0003C24.8392 14.0355 24.6775 14.1128 24.4455 14.2815L21.8722 16.1165C21.5207 16.3626 21.1059 16.4399 20.7333 16.3275C20.3607 16.215 20.0583 15.9197 19.9037 15.5189L18.6663 12.2216C18.5749 11.9755 18.4905 11.856 18.4413 11.7997C18.3921 11.856 18.3077 11.9755 18.2163 12.2145L16.9789 15.5119C16.8313 15.9126 16.529 16.2079 16.1493 16.3204C15.7767 16.4329 15.3548 16.3556 15.0103 16.1095L12.2684 14.148C12.1067 14.0355 11.9801 13.9652 11.8887 13.93Z" fill="#FFB616"/>
<path d="M20.1989 20.2154H16.6835C16.3953 20.2154 16.1562 19.9764 16.1562 19.6881C16.1562 19.3999 16.3953 19.1608 16.6835 19.1608H20.1989C20.4871 19.1608 20.7262 19.3999 20.7262 19.6881C20.7262 19.9764 20.4871 20.2154 20.1989 20.2154Z" fill="#FFB616"/>
</svg>
