<svg width="36" height="36" viewBox="0 0 36 36" fill="none" xmlns="http://www.w3.org/2000/svg">
<rect x="1" y="1" width="34" height="34" rx="17" fill="#F0F8FF" stroke="white" strokeWidth="2"/>
<path d="M21.4613 17.5761C20.9711 17.5761 20.5645 17.1696 20.5645 16.6793V15.4837C20.5645 13.738 20.1341 12.7935 17.8743 12.7935C15.6145 12.7935 15.1841 13.738 15.1841 15.4837V16.6793C15.1841 17.1696 14.7776 17.5761 14.2874 17.5761C13.7971 17.5761 13.3906 17.1696 13.3906 16.6793V15.4837C13.3906 14.3717 13.3906 11 17.8743 11C22.358 11 22.358 14.3717 22.358 15.4837V16.6793C22.358 17.1696 21.9515 17.5761 21.4613 17.5761Z" fill="#6097F3"/>
<path d="M17.8719 21.8803C16.9872 21.8803 16.2578 21.151 16.2578 20.2662C16.2578 19.3814 16.9872 18.6521 17.8719 18.6521C18.7567 18.6521 19.486 19.3814 19.486 20.2662C19.486 21.151 18.7567 21.8803 17.8719 21.8803ZM17.8719 20.0868C17.7763 20.0868 17.6925 20.1705 17.6925 20.2662C17.6925 20.4694 18.0513 20.4694 18.0513 20.2662C18.0513 20.1705 17.9676 20.0868 17.8719 20.0868Z" fill="#6097F3"/>
<path d="M20.8641 24.75H14.8859C12.0163 24.75 11 23.7337 11 20.8641V19.6685C11 16.7989 12.0163 15.7826 14.8859 15.7826H20.8641C23.7337 15.7826 24.75 16.7989 24.75 19.6685V20.8641C24.75 23.7337 23.7337 24.75 20.8641 24.75ZM14.8859 17.5761C12.9848 17.5761 12.7935 17.7674 12.7935 19.6685V20.8641C12.7935 22.7652 12.9848 22.9565 14.8859 22.9565H20.8641C22.7652 22.9565 22.9565 22.7652 22.9565 20.8641V19.6685C22.9565 17.7674 22.7652 17.5761 20.8641 17.5761H14.8859Z" fill="#6097F3"/>
</svg>
