<svg width="689" height="377" viewBox="0 0 689 377" fill="none" xmlns="http://www.w3.org/2000/svg">
<g filter="url(#filter0_d_318_7)">
<path d="M186.691 172.4C175.224 172.4 164.024 171.067 153.091 168.4C142.424 165.467 133.624 161.333 126.691 156C126.957 159.733 127.091 163.733 127.091 168C127.357 172 127.491 176.133 127.491 180.4V274.4H86.6906V177.2C86.6906 161.2 86.2906 147.467 85.4906 136C84.6906 124.267 83.4906 113.733 81.8906 104.4C80.2906 95.0667 78.2906 86.2667 75.8906 78C73.7573 69.4667 71.3573 60.4 68.6906 50.8L107.491 36.8C110.957 48.8 113.757 59.7333 115.891 69.6C118.291 79.2 120.691 89.0667 123.091 99.2C124.957 105.867 127.224 111.2 129.891 115.2C132.824 119.2 138.424 122.667 146.691 125.6C142.691 120.267 140.291 114.933 139.491 109.6C138.691 104 138.291 99.0667 138.291 94.8C138.291 86.8 139.891 79.2 143.091 72C146.557 64.5333 151.224 58.1333 157.091 52.8C162.957 47.2 169.891 42.8 177.891 39.6C186.157 36.1333 194.957 34.4 204.291 34.4C210.957 34.4 217.757 35.0667 224.691 36.4C231.624 37.7333 239.491 40.1333 248.291 43.6L236.291 83.6C228.824 80.9333 222.824 79.2 218.291 78.4C213.757 77.3333 209.091 76.8 204.291 76.8C196.024 76.8 189.091 79.3333 183.491 84.4C178.157 89.2 175.491 95.6 175.491 103.6C175.491 111.333 177.757 117.733 182.291 122.8C187.091 127.6 192.824 130 199.491 130C207.491 130 215.491 128.933 223.491 126.8C231.491 124.4 239.891 121.467 248.691 118L259.091 154.8C244.691 161.467 231.757 166.133 220.291 168.8C209.091 171.2 197.891 172.4 186.691 172.4ZM346.241 95.6C355.041 95.6 363.441 97.6 371.441 101.6C379.707 105.333 387.041 110.4 393.441 116.8C399.841 122.933 404.907 130.133 408.641 138.4C412.641 146.4 414.641 154.8 414.641 163.6C414.641 172.4 412.641 180.933 408.641 189.2C404.907 197.467 399.841 204.8 393.441 211.2C387.041 217.333 379.707 222.4 371.441 226.4C363.441 230.133 355.041 232 346.241 232C337.441 232 328.907 230.133 320.641 226.4C312.374 222.4 305.041 217.333 298.641 211.2C292.241 204.8 287.041 197.467 283.041 189.2C279.307 180.933 277.441 172.4 277.441 163.6C277.441 154.8 279.307 146.4 283.041 138.4C287.041 130.133 292.241 122.933 298.641 116.8C305.041 110.4 312.374 105.333 320.641 101.6C328.907 97.6 337.441 95.6 346.241 95.6ZM346.241 192.8C349.974 192.8 353.574 192 357.041 190.4C360.507 188.8 363.574 186.667 366.241 184C369.174 181.333 371.441 178.267 373.041 174.8C374.907 171.333 375.841 167.6 375.841 163.6C375.841 159.867 374.907 156.267 373.041 152.8C371.441 149.333 369.174 146.267 366.241 143.6C363.574 140.667 360.507 138.4 357.041 136.8C353.574 135.2 349.974 134.4 346.241 134.4C342.507 134.4 338.774 135.2 335.041 136.8C331.574 138.4 328.374 140.667 325.441 143.6C322.774 146.267 320.507 149.333 318.641 152.8C317.041 156.267 316.241 159.867 316.241 163.6C316.241 167.6 317.041 171.333 318.641 174.8C320.507 178.267 322.774 181.333 325.441 184C328.374 186.667 331.574 188.8 335.041 190.4C338.774 192 342.507 192.8 346.241 192.8ZM548.05 172.4C536.583 172.4 525.383 171.067 514.45 168.4C503.783 165.467 494.983 161.333 488.05 156C488.317 159.733 488.45 163.733 488.45 168C488.717 172 488.85 176.133 488.85 180.4V274.4H448.05V177.2C448.05 161.2 447.65 147.467 446.85 136C446.05 124.267 444.85 113.733 443.25 104.4C441.65 95.0667 439.65 86.2667 437.25 78C435.117 69.4667 432.717 60.4 430.05 50.8L468.85 36.8C472.317 48.8 475.117 59.7333 477.25 69.6C479.65 79.2 482.05 89.0667 484.45 99.2C486.317 105.867 488.583 111.2 491.25 115.2C494.183 119.2 499.783 122.667 508.05 125.6C504.05 120.267 501.65 114.933 500.85 109.6C500.05 104 499.65 99.0667 499.65 94.8C499.65 86.8 501.25 79.2 504.45 72C507.917 64.5333 512.583 58.1333 518.45 52.8C524.317 47.2 531.25 42.8 539.25 39.6C547.517 36.1333 556.317 34.4 565.65 34.4C572.317 34.4 579.117 35.0667 586.05 36.4C592.983 37.7333 600.85 40.1333 609.65 43.6L597.65 83.6C590.183 80.9333 584.183 79.2 579.65 78.4C575.117 77.3333 570.45 76.8 565.65 76.8C557.383 76.8 550.45 79.3333 544.85 84.4C539.517 89.2 536.85 95.6 536.85 103.6C536.85 111.333 539.117 117.733 543.65 122.8C548.45 127.6 554.183 130 560.85 130C568.85 130 576.85 128.933 584.85 126.8C592.85 124.4 601.25 121.467 610.05 118L620.45 154.8C606.05 161.467 593.117 166.133 581.65 168.8C570.45 171.2 559.25 172.4 548.05 172.4Z" fill="url(#paint0_linear_318_7)"/>
</g>
<defs>
<filter id="filter0_d_318_7" x="0.690674" y="0.399902" width="687.759" height="376" filterUnits="userSpaceOnUse" color-interpolation-filters="sRGB">
<feFlood flood-opacity="0" result="BackgroundImageFix"/>
<feColorMatrix in="SourceAlpha" type="matrix" values="0 0 0 0 0 0 0 0 0 0 0 0 0 0 0 0 0 0 127 0" result="hardAlpha"/>
<feOffset dy="34"/>
<feGaussianBlur stdDeviation="34"/>
<feColorMatrix type="matrix" values="0 0 0 0 0.530869 0 0 0 0 0.562252 0 0 0 0 0.609326 0 0 0 0.22 0"/>
<feBlend mode="normal" in2="BackgroundImageFix" result="effect1_dropShadow_318_7"/>
<feBlend mode="normal" in="SourceGraphic" in2="effect1_dropShadow_318_7" result="shape"/>
</filter>
<linearGradient id="paint0_linear_318_7" x1="346" y1="30" x2="346" y2="348" gradientUnits="userSpaceOnUse">
<stop stop-color="white"/>
<stop offset="1" stop-color="white" stop-opacity="0"/>
</linearGradient>
</defs>
</svg>
