<svg width="850" height="629" viewBox="0 0 850 629" fill="none" xmlns="http://www.w3.org/2000/svg">
<g opacity="0.4" filter="url(#filter0_d_19_10105)">
<path fill-rule="evenodd" clip-rule="evenodd" d="M415.318 164.139L612.745 25.3691L613.369 25V25.7381V122.188V122.312L613.244 122.435L519.339 188.744L518.714 189.113V188.375V162.909V162.663L518.964 162.54L591.391 111.239V66.951L441.292 172.382L439.367 173.805L455.75 185.309L613.247 295.652H613.746V392.348L435.425 517.709C433.48 519.412 431.177 520.672 428.682 521.4C426.044 522.11 423.23 521.802 420.815 520.538C418.961 519.501 417.445 517.964 416.444 516.11C415.452 514.211 414.979 512.092 415.071 509.958V311.645V310.907H175.436C159.763 311.842 144.033 310.85 128.608 307.954C118.607 305.441 109.107 301.282 100.512 295.652C92.2333 290.34 84.9287 283.685 78.9084 275.968C77.5764 274.246 76.4525 272.605 75.5368 271.047L72.9144 266.741C73.275 276.322 74.9985 285.805 78.0343 294.914C84.5836 314.546 97.4227 331.555 114.623 343.385C123.585 349.432 133.441 354.08 143.843 357.163L150.586 358.886L159.078 360.362L168.568 361.469H176.061H393.218V383.121H176.56C169.67 383.099 162.788 382.647 155.956 381.768C149.872 380.834 143.863 379.477 137.974 377.708C112.142 370.412 89.5186 354.834 73.6858 333.442C57.853 312.051 49.7156 286.067 50.5619 259.606C50.8996 235.839 58.5166 212.726 72.4149 193.296C86.4207 173.55 106.067 158.349 128.858 149.623V157.25C115.412 162.014 103.686 170.571 95.1421 181.855C87.0601 193.074 82.6982 206.481 82.6546 220.238C82.483 235.55 87.3942 250.497 96.6406 262.804C105.912 274.978 119.131 283.66 134.103 287.409C147.661 289.738 161.451 290.481 175.187 289.624H416.195C421.999 289.777 427.512 292.161 431.554 296.267C435.509 300.437 437.697 305.938 437.673 311.645V489.783L591.394 381.768V337.48L459.651 429.624V403.543L543.926 344.055L415.322 254.071V242.751H415.193V242.382V164.386V164.262L415.318 164.139ZM594.239 308.54L562.339 331.058L437.675 242.876V198.464L591.895 306.725L594.239 308.54ZM768.946 104.643L737.953 135.177L768.861 165.627L737.953 196.076L768.801 226.466L737.832 256.976L768.825 287.51L799.818 256.976L768.971 226.586L799.939 196.076L769.032 165.627L799.939 135.177L768.946 104.643ZM165.393 135.187L196.386 104.654L227.379 135.187L196.471 165.637L227.379 196.086L196.386 226.62L165.393 196.086L196.3 165.637L165.393 135.187ZM635.101 403.666L768.218 310.045V407.357L610.251 518.816C607.931 520.765 604.926 521.737 601.885 521.522C599.09 521.31 596.491 520.029 594.642 517.955C593.033 515.837 592.276 513.208 592.519 510.573C592.806 507.751 594.194 505.149 596.39 503.315H597.014L612.499 490.643L746.115 396.284V351.996L634.727 430.239V403.789L635.101 403.666ZM693.666 92.0476L693.915 309.307L656.453 335.88V335.757L635.349 350.397L635.224 350.52V350.766V376.355V377.093L635.849 376.601L715.644 320.502L715.769 320.379V320.256L715.519 50.8348V50.0966L714.894 50.4657L635.224 106.933L634.975 107.056V107.179L635.1 279.043V279.781L635.724 279.289L656.828 264.403L656.953 264.28V264.157V118.129L693.666 92.0476ZM612.496 419.781L459.15 527.427L458.9 527.55V527.673V553.262V554L459.525 553.631L591.767 460.871L612.996 445.985L613.12 445.862V445.616V420.027V419.289L612.496 419.781Z" fill="white" fill-opacity="0.1" shape-rendering="crispEdges"/>
</g>
<defs>
<filter id="filter0_d_19_10105" x="0.501953" y="0" width="849.438" height="629" filterUnits="userSpaceOnUse" color-interpolation-filters="sRGB">
<feFlood flood-opacity="0" result="BackgroundImageFix"/>
<feColorMatrix in="SourceAlpha" type="matrix" values="0 0 0 0 0 0 0 0 0 0 0 0 0 0 0 0 0 0 127 0" result="hardAlpha"/>
<feOffset dy="25"/>
<feGaussianBlur stdDeviation="25"/>
<feComposite in2="hardAlpha" operator="out"/>
<feColorMatrix type="matrix" values="0 0 0 0 0 0 0 0 0 0 0 0 0 0 0 0 0 0 0.09 0"/>
<feBlend mode="normal" in2="BackgroundImageFix" result="effect1_dropShadow_19_10105"/>
<feBlend mode="normal" in="SourceGraphic" in2="effect1_dropShadow_19_10105" result="shape"/>
</filter>
</defs>
</svg>
