<svg id="Layer_1" data-name="Layer 1" xmlns="http://www.w3.org/2000/svg" viewBox="0 0 589.47 422.38"><defs><style>.cls-1{fill:#b3b3b3;}.cls-1,.cls-3,.cls-4{fill-rule:evenodd;}.cls-2,.cls-3{fill:#4d4d4d;}.cls-4,.cls-6{fill:#fea000;}.cls-5{fill:none;stroke:#4d4d4d;stroke-miterlimit:2.61;stroke-width:0.22px;}</style></defs><path class="cls-1" d="M9,396.37H8.69a8.3,8.3,0,0,1-.07-16.59h260.7v16.58Z"/><rect class="cls-2" x="97.52" y="70.7" width="34.43" height="34.43" transform="translate(-28.56 106.88) rotate(-45)"/><rect class="cls-2" x="97.52" y="119.31" width="34.43" height="34.43" transform="translate(-62.94 121.12) rotate(-45)"/><rect class="cls-2" x="547.91" y="70.7" width="34.43" height="34.43" transform="translate(103.35 425.35) rotate(-45)"/><rect class="cls-2" x="547.91" y="119.31" width="34.43" height="34.43" transform="translate(68.98 439.6) rotate(-45)"/><path class="cls-3" d="M242.93,361.9V311.67H230.11v-7.82h39.13v7.82H256.42V361.9Zm-48.72,0v-58h30.14v7.82H207.69v16.89h15.77v7.83H207.69v17.69h17.54v7.82Zm-46.12,0v-58h13.48v58Zm27.09,0-13-28.61,14.37-29.44h7.09l-10.4,21.23,16.81,36.82Zm-79.85,0,16.52-58h13l17.63,58H128.18l-5.08-17.15H107l-4.78,17.15ZM109,337.37h11.88l-6.23-20.81Zm-32.81-8.72v-24.8H89.72v58H76.23V336.48H61.79V361.9H48.3v-58H61.79v24.8Z"/><polygon class="cls-4" points="1.97 311.67 1.97 303.85 42.43 303.85 19.3 354.08 41.03 354.08 41.03 361.9 0.64 361.9 23.73 311.67 1.97 311.67"/><polygon class="cls-4" points="294.74 177.29 403.58 254.47 438 228.61 294.74 120.97 294.74 177.29"/><polygon class="cls-5" points="291.32 185.38 396.75 260.6 429.43 232.77 442.45 216.22 291.32 108.4 291.32 185.38"/><path class="cls-3" d="M442.28.34,287,111.06l-.12.09v1.47h0v70.17l.13.09,101,71.85-66.44,47.42-.13.09V323.4l.47-.34,103.6-73.93v35.4l-121.27,86.6,0-142.26a17.86,17.86,0,0,0-4.82-12.51,17.48,17.48,0,0,0-12-5.29l0,0H99.72l-2,.05c-10.59.23-22.87.49-32.27-1.76A53.35,53.35,0,0,1,36.12,190c-6.74-8.9-10.91-20.37-11-34a53.22,53.22,0,0,1,10.24-30.64,57.21,57.21,0,0,1,26.5-19.87l.19-.07V99.43l-.4.15A97,97,0,0,0,17.2,134.43,94.13,94.13,0,0,0,0,187.36c-.38,22,6.11,42.36,18.08,58.86,11.85,16.34,29.07,28.87,50.3,35.4A103.34,103.34,0,0,0,83,284.76a129.89,129.89,0,0,0,16.16,1.46H269.6V269H98.84V269c-1.63,0-3.63-.17-5.88-.39s-4.83-.53-7.48-.92c-2.32-.35-4.61-.75-6.72-1.2-2-.41-3.75-.86-5.3-1.34A82.69,82.69,0,0,1,50.1,253.81a76.35,76.35,0,0,1-28.76-38.66,81.94,81.94,0,0,1-4.06-22.47c.66,1.17,1.35,2.31,2.07,3.43q1.44,2.22,3,4.3a69,69,0,0,0,17.11,16A71.73,71.73,0,0,0,61.2,226h0l.26.07h0c11.55,2.77,25,2.48,36.58,2.23h0l2,0H286.82v.63h0l0,158.33a9.94,9.94,0,0,0,1.06,4.95,8.79,8.79,0,0,0,3.42,3.49h0a8.43,8.43,0,0,0,6.21.72,13.69,13.69,0,0,0,5.27-3l139.81-99.95.13-.09v-.15h0V216.06l-.13-.09L306,118.71l1.4-1h0L425.48,33.48V68.89l-57,40.93-.13.09v21.16l.48-.34,73.8-52.92.13-.09V0ZM427.53,226.5l-24.89,17.76L304.14,174v-35.4L425.6,225Z"/><path class="cls-2" d="M459.85,302.38l104.72-74.74.48-.34V305l-.13.09-124.58,89.2-.24.2a9.1,9.1,0,0,1-6.57,2.15,8.48,8.48,0,0,1-5.71-2.86h0l-.16-.19h0c-.12-.14-.24-.28-.35-.43a8.52,8.52,0,0,1-1.64-5.91,8.7,8.7,0,0,1,3.05-5.8c.16-.15.34-.29.52-.43h0l12.91-9.24.48-.34v0l105.13-75.31v-35.4l-87.57,62.5-.48.34V302.47Z"/><polygon class="cls-2" points="506.1 227.04 505.96 53.55 477.02 74.33 477.07 190.95 477.07 191.1 476.95 191.19 460.35 203.07 459.88 203.41 459.88 202.82 459.81 65.66 459.81 65.51 459.93 65.42 522.67 20.36 523.14 20.02 523.14 20.61 523.31 235.72 523.31 235.87 523.19 235.96 460.45 280.77 459.98 281.11 459.98 280.53 459.96 260.07 459.96 259.92 460.09 259.83 476.69 248.17 476.69 248.17 506.1 227.04"/><rect class="cls-2" x="547.91" y="168.01" width="34.43" height="34.43" transform="translate(34.55 453.86) rotate(-45)"/><polygon class="cls-6" points="321.4 401.13 442.09 315.2 442.56 314.86 442.56 315.44 442.56 335.87 442.56 336.02 442.44 336.11 425.76 348.01 321.75 422.04 321.28 422.38 321.28 421.8 321.28 401.37 321.28 401.22 321.4 401.13"/></svg>