<svg width="430" height="533" viewBox="0 0 430 533" fill="none" xmlns="http://www.w3.org/2000/svg">
<g opacity="0.1" filter="url(#filter0_f_8_819)">
<path fill-rule="evenodd" clip-rule="evenodd" d="M306.972 100.457C304.544 98.7557 302.362 99.7754 302.068 102.783L302.173 101.714C301.299 109.822 295.273 112.456 288.644 107.585L273.661 96.5764C268.321 92.6521 264.514 84.1238 265.158 77.5278L265.869 70.2555L133.476 -27.0233L151.36 -210.047C151.897 -215.544 155.94 -217.349 160.391 -214.079L393.757 -42.6077C398.207 -39.3375 401.38 -32.2306 400.843 -26.7339L383.931 146.338C383.394 151.834 379.351 153.639 374.9 150.369L306.972 100.457Z" fill="url(#paint0_linear_8_819)"/>
</g>
<g opacity="0.1" filter="url(#filter1_f_8_819)">
<path fill-rule="evenodd" clip-rule="evenodd" d="M306.972 100.457C304.544 98.7557 302.362 99.7754 302.068 102.783L302.173 101.714C301.299 109.822 295.273 112.456 288.644 107.585L273.661 96.5764C268.321 92.6521 264.514 84.1238 265.158 77.5278L265.869 70.2555L133.476 -27.0233L151.36 -210.047C151.897 -215.544 155.94 -217.349 160.391 -214.079L393.757 -42.6077C398.207 -39.3375 401.38 -32.2306 400.843 -26.7339L383.931 146.338C383.394 151.834 379.351 153.639 374.9 150.369L306.972 100.457Z" fill="url(#paint1_linear_8_819)"/>
</g>
<g clip-path="url(#clip0_8_819)">
<g clip-path="url(#clip1_8_819)">
<g filter="url(#filter2_d_8_819)">
<path d="M397.56 138.024L397.04 594.473L320.7 539.678V232.881V232.622L320.44 232.364L276.558 201.089L275.26 200.056V201.606L275 562.682V562.94L275.519 563.199L441.182 681.834L442.481 682.61V681.059L443 115.021V114.762L442.74 114.504L276.818 -3.35646L275.519 -4.39037V-2.83953V50.9212V51.4382L275.779 51.6966L319.662 82.4539V82.1955L397.56 138.024Z" fill="url(#paint2_linear_8_819)" fill-opacity="0.8"/>
<path d="M473.56 104.024L473.04 560.473L396.7 505.678V198.881V198.622L396.44 198.364L352.558 167.089L351.26 166.056V167.606L351 528.682V528.94L351.519 529.199L517.182 647.834L518.481 648.61V647.059L519 81.0206V80.762L518.74 80.5036L352.818 -37.3565L351.519 -38.3904V-36.8395V16.9212V17.4382L351.779 17.6966L395.662 48.4539V48.1955L473.56 104.024Z" fill="url(#paint3_linear_8_819)" fill-opacity="0.8"/>
<path d="M627.685 1255.9L626.618 317.758L469.849 430.378L469.849 1060.94V1061.47L469.315 1062.01L379.199 1126.28L376.533 1128.41V1125.22L376 383.099V382.567L377.066 382.036L717.267 138.203L719.934 136.61V139.797L721 1303.18V1303.71L720.467 1304.25L379.733 1546.48L377.066 1548.61V1545.42L377.066 1434.93V1433.86L377.6 1433.33L467.716 1370.12V1370.65L627.685 1255.9Z" fill="url(#paint4_linear_8_819)"/>
</g>
</g>
<rect width="2127" height="170" transform="matrix(1 0 0 -1 -936 648.61)" fill="url(#paint5_linear_8_819)"/>
<g filter="url(#filter3_f_8_819)">
<ellipse cx="924" cy="709.61" rx="536" ry="82" fill="#7F84F7" fill-opacity="0.07"/>
</g>
</g>
<defs>
<filter id="filter0_f_8_819" x="-120.524" y="-469.709" width="775.427" height="875.708" filterUnits="userSpaceOnUse" color-interpolation-filters="sRGB">
<feFlood flood-opacity="0" result="BackgroundImageFix"/>
<feBlend mode="normal" in="SourceGraphic" in2="BackgroundImageFix" result="shape"/>
<feGaussianBlur stdDeviation="127" result="effect1_foregroundBlur_8_819"/>
</filter>
<filter id="filter1_f_8_819" x="-120.524" y="-469.709" width="775.427" height="875.708" filterUnits="userSpaceOnUse" color-interpolation-filters="sRGB">
<feFlood flood-opacity="0" result="BackgroundImageFix"/>
<feBlend mode="normal" in="SourceGraphic" in2="BackgroundImageFix" result="shape"/>
<feGaussianBlur stdDeviation="127" result="effect1_foregroundBlur_8_819"/>
</filter>
<filter id="filter2_d_8_819" x="220" y="-68.3904" width="847" height="1697" filterUnits="userSpaceOnUse" color-interpolation-filters="sRGB">
<feFlood flood-opacity="0" result="BackgroundImageFix"/>
<feColorMatrix in="SourceAlpha" type="matrix" values="0 0 0 0 0 0 0 0 0 0 0 0 0 0 0 0 0 0 127 0" result="hardAlpha"/>
<feOffset dy="25"/>
<feGaussianBlur stdDeviation="27.5"/>
<feComposite in2="hardAlpha" operator="out"/>
<feColorMatrix type="matrix" values="0 0 0 0 1 0 0 0 0 0.482039 0 0 0 0 0.00392157 0 0 0 0.04 0"/>
<feBlend mode="normal" in2="BackgroundImageFix" result="effect1_dropShadow_8_819"/>
<feBlend mode="normal" in="SourceGraphic" in2="effect1_dropShadow_8_819" result="shape"/>
</filter>
<filter id="filter3_f_8_819" x="214" y="453.61" width="1420" height="512" filterUnits="userSpaceOnUse" color-interpolation-filters="sRGB">
<feFlood flood-opacity="0" result="BackgroundImageFix"/>
<feBlend mode="normal" in="SourceGraphic" in2="BackgroundImageFix" result="shape"/>
<feGaussianBlur stdDeviation="87" result="effect1_foregroundBlur_8_819"/>
</filter>
<linearGradient id="paint0_linear_8_819" x1="212.219" y1="109.788" x2="415.541" y2="87.2763" gradientUnits="userSpaceOnUse">
<stop offset="0.0001" stop-color="#FFC107"/>
<stop offset="1" stop-color="#FF9737"/>
</linearGradient>
<linearGradient id="paint1_linear_8_819" x1="212.219" y1="109.788" x2="415.541" y2="87.2763" gradientUnits="userSpaceOnUse">
<stop offset="0.0001" stop-color="#FFC107"/>
<stop offset="1" stop-color="#FF9737"/>
</linearGradient>
<linearGradient id="paint2_linear_8_819" x1="359" y1="682.61" x2="-0.903907" y2="240.015" gradientUnits="userSpaceOnUse">
<stop stop-color="white"/>
<stop offset="1" stop-color="white" stop-opacity="0"/>
</linearGradient>
<linearGradient id="paint3_linear_8_819" x1="435" y1="648.61" x2="75.0961" y2="206.015" gradientUnits="userSpaceOnUse">
<stop stop-color="white"/>
<stop offset="1" stop-color="white" stop-opacity="0"/>
</linearGradient>
<linearGradient id="paint4_linear_8_819" x1="548.5" y1="136.61" x2="-191.343" y2="1045.67" gradientUnits="userSpaceOnUse">
<stop stop-color="white"/>
<stop offset="1" stop-color="white" stop-opacity="0"/>
</linearGradient>
<linearGradient id="paint5_linear_8_819" x1="1063.5" y1="0" x2="1063.5" y2="170" gradientUnits="userSpaceOnUse">
<stop stop-color="white"/>
<stop offset="1" stop-color="white" stop-opacity="0"/>
</linearGradient>
<clipPath id="clip0_8_819">
<rect width="643" height="560.39" fill="white" transform="translate(-194 -27.3904)"/>
</clipPath>
<clipPath id="clip1_8_819">
<rect width="817" height="703.84" fill="white" transform="translate(252 -27.3904)"/>
</clipPath>
</defs>
</svg>
