<svg width="335" height="448" viewBox="0 0 335 448" fill="none" xmlns="http://www.w3.org/2000/svg">
<rect width="335" height="448" rx="16" fill="url(#paint0_linear_292_2)"/>
<path d="M76.676 181.727C52.5122 181.727 62.4446 222.228 34.1577 222.228H3.7123C2.36568 222.228 3.34194 289 3.34194 289L330.761 273.676C329.884 273.676 331.601 114.97 330.761 115C291.623 116.411 292.294 149.982 267.24 149.982C247.027 149.982 248.683 129.184 221.745 129.184C194.807 129.184 189.984 170.78 168.524 170.78C148.781 170.78 147.292 209.092 119.596 209.092C84.2804 209.092 100.84 181.727 76.676 181.727Z" fill="url(#paint1_linear_292_2)"/>
<path d="M6 223C6 223 9.81284 223 37.6438 223C65.4747 223 55.7024 182.224 79.4767 182.224C103.251 182.224 86.9586 209.776 121.705 209.776C148.955 209.776 150.42 171.204 169.845 171.204C190.959 171.204 195.703 129.327 222.207 129.327C248.711 129.327 247.082 150.265 266.969 150.265C292.148 150.265 290.919 115 332 115" stroke="#FFC107"/>
<g clip-path="url(#clip0_292_2)">
<mask id="path-4-inside-1_292_2" fill="white">
<path d="M87.0634 184.182L87.6012 655.913L166.668 599.284V282.214V281.947L166.937 281.68L212.386 249.359L213.731 248.291V249.893L214 623.057V623.324L213.462 623.591L41.8825 746.199L40.5379 747V745.397L40 160.409V160.141L40.269 159.874L212.117 38.0685L213.462 37V38.6028V94.1634V94.6976L213.193 94.9647L167.743 126.752V126.485L87.0634 184.182Z"/>
</mask>
<path d="M87.0634 184.182L86.7725 183.775L86.5631 183.925L86.5634 184.183L87.0634 184.182ZM87.6012 655.913L87.1012 655.913L87.1023 656.885L87.8924 656.319L87.6012 655.913ZM166.668 599.284L166.959 599.69L167.168 599.541V599.284H166.668ZM166.668 281.947L166.315 281.593L166.168 281.739V281.947H166.668ZM166.937 281.68L166.647 281.273L166.613 281.297L166.584 281.326L166.937 281.68ZM212.386 249.359L212.676 249.766L212.687 249.759L212.697 249.75L212.386 249.359ZM213.731 248.291H214.231V247.255L213.42 247.899L213.731 248.291ZM213.731 249.893H213.231L213.231 249.894L213.731 249.893ZM214 623.057H214.5L214.5 623.057L214 623.057ZM214 623.324L214.222 623.772L214.5 623.634V623.324H214ZM213.462 623.591L213.24 623.144L213.204 623.161L213.171 623.185L213.462 623.591ZM41.8825 746.199L42.1385 746.628L42.1563 746.618L42.1732 746.605L41.8825 746.199ZM40.5379 747H40.0379V747.88L40.7938 747.43L40.5379 747ZM40.5379 745.397H41.0379V745.397L40.5379 745.397ZM40 160.409H39.5V160.409L40 160.409ZM40 160.141L39.6477 159.787L39.5 159.933V160.141H40ZM40.269 159.874L39.9798 159.466L39.9461 159.49L39.9167 159.52L40.269 159.874ZM212.117 38.0685L212.407 38.4764L212.418 38.4685L212.429 38.46L212.117 38.0685ZM213.462 37H213.962V35.9641L213.151 36.6086L213.462 37ZM213.462 94.6976L213.814 95.0524L213.962 94.9058V94.6976H213.462ZM213.193 94.9647L213.48 95.3745L213.515 95.3498L213.545 95.3195L213.193 94.9647ZM167.743 126.752H167.243V127.712L168.03 127.161L167.743 126.752ZM167.743 126.485H168.243V125.512L167.453 126.078L167.743 126.485ZM87.3542 184.589L89.035 183.387L88.4533 182.573L86.7725 183.775L87.3542 184.589ZM92.3967 180.983L95.7584 178.579L95.1767 177.765L91.815 180.169L92.3967 180.983ZM99.12 176.175L102.482 173.771L101.9 172.957L98.5383 175.361L99.12 176.175ZM105.843 171.367L109.205 168.962L108.623 168.149L105.262 170.553L105.843 171.367ZM112.567 166.558L115.928 164.154L115.347 163.341L111.985 165.745L112.567 166.558ZM119.29 161.75L122.652 159.346L122.07 158.533L118.708 160.937L119.29 161.75ZM126.013 156.942L129.375 154.538L128.793 153.725L125.432 156.129L126.013 156.942ZM132.737 152.134L136.098 149.73L135.517 148.917L132.155 151.321L132.737 152.134ZM139.46 147.326L142.822 144.922L142.24 144.108L138.878 146.513L139.46 147.326ZM146.183 142.518L149.545 140.114L148.963 139.3L145.602 141.704L146.183 142.518ZM152.907 137.71L156.268 135.306L155.687 134.492L152.325 136.896L152.907 137.71ZM159.63 132.902L162.992 130.497L162.41 129.684L159.048 132.088L159.63 132.902ZM166.353 128.093L168.034 126.891L167.453 126.078L165.772 127.28L166.353 128.093ZM167.243 126.485V126.551H168.243V126.485H167.243ZM167.243 126.685V126.752H168.243V126.685H167.243ZM168.03 127.161L169.653 126.026L169.08 125.207L167.457 126.342L168.03 127.161ZM172.9 123.756L176.146 121.485L175.573 120.666L172.326 122.936L172.9 123.756ZM179.392 119.215L182.639 116.944L182.066 116.125L178.819 118.395L179.392 119.215ZM185.885 114.674L189.132 112.403L188.559 111.584L185.312 113.854L185.885 114.674ZM192.378 110.133L195.624 107.862L195.051 107.043L191.805 109.313L192.378 110.133ZM198.871 105.592L202.117 103.321L201.544 102.502L198.298 104.772L198.871 105.592ZM205.364 101.051L208.61 98.7802L208.037 97.9608L204.791 100.231L205.364 101.051ZM211.856 96.5097L213.48 95.3745L212.907 94.555L211.283 95.6902L211.856 96.5097ZM213.545 95.3195L213.613 95.2527L212.908 94.5432L212.841 94.6099L213.545 95.3195ZM213.747 95.1192L213.814 95.0524L213.11 94.3428L213.043 94.4096L213.747 95.1192ZM213.962 94.6976V94.5641H212.962V94.6976H213.962ZM213.962 94.2969V94.1634H212.962V94.2969H213.962ZM213.962 94.1634V92.1791H212.962V94.1634H213.962ZM213.962 88.2104V84.2419H212.962V88.2104H213.962ZM213.962 80.2733V76.3046H212.962V80.2733H213.962ZM213.962 72.336V68.3674H212.962V72.336H213.962ZM213.962 64.3988V60.4302H212.962V64.3988H213.962ZM213.962 56.4615V52.4929H212.962V56.4615H213.962ZM213.962 48.5243V44.5557H212.962V48.5243H213.962ZM213.962 40.5871V38.6028H212.962V40.5871H213.962ZM213.962 38.6028V38.2021H212.962V38.6028H213.962ZM213.962 37.4007V37H212.962V37.4007H213.962ZM213.151 36.6086L212.815 36.8757L213.437 37.6586L213.773 37.3915L213.151 36.6086ZM212.143 37.41L211.806 37.6771L212.429 38.46L212.765 38.1929L212.143 37.41ZM211.828 37.6606L210.176 38.8318L210.754 39.6477L212.407 38.4764L211.828 37.6606ZM206.871 41.1743L203.566 43.5167L204.145 44.3325L207.449 41.9901L206.871 41.1743ZM200.262 45.8591L196.957 48.2015L197.535 49.0173L200.84 46.6749L200.262 45.8591ZM193.652 50.5439L190.347 52.8864L190.926 53.7022L194.23 51.3598L193.652 50.5439ZM187.042 55.2288L183.738 57.5712L184.316 58.387L187.621 56.0446L187.042 55.2288ZM180.433 59.9136L177.128 62.256L177.706 63.0719L181.011 60.7294L180.433 59.9136ZM173.823 64.5984L170.519 66.9409L171.097 67.7567L174.402 65.4143L173.823 64.5984ZM167.214 69.2833L163.909 71.6257L164.487 72.4415L167.792 70.0991L167.214 69.2833ZM160.604 73.9681L157.299 76.3105L157.878 77.1264L161.183 74.784L160.604 73.9681ZM153.995 78.653L150.69 80.9954L151.268 81.8112L154.573 79.4688L153.995 78.653ZM147.385 83.3378L144.08 85.6802L144.659 86.4961L147.963 84.1537L147.385 83.3378ZM140.776 88.0226L137.471 90.3651L138.049 91.1809L141.354 88.8385L140.776 88.0226ZM134.166 92.7075L130.861 95.0499L131.44 95.8658L134.744 93.5234L134.166 92.7075ZM127.556 97.3923L124.252 99.7347L124.83 100.551L128.135 98.2082L127.556 97.3923ZM120.947 102.077L117.642 104.42L118.22 105.235L121.525 102.893L120.947 102.077ZM114.337 106.762L111.033 109.104L111.611 109.92L114.916 107.578L114.337 106.762ZM107.728 111.447L104.423 113.789L105.001 114.605L108.306 112.263L107.728 111.447ZM101.118 116.132L97.8134 118.474L98.3917 119.29L101.696 116.948L101.118 116.132ZM94.5087 120.817L91.2039 123.159L91.7822 123.975L95.0869 121.632L94.5087 120.817ZM87.8991 125.501L84.5944 127.844L85.1726 128.66L88.4774 126.317L87.8991 125.501ZM81.2896 130.186L77.9848 132.529L78.5631 133.344L81.8678 131.002L81.2896 130.186ZM74.68 134.871L71.3752 137.214L71.9535 138.029L75.2583 135.687L74.68 134.871ZM68.0705 139.556L64.7657 141.898L65.344 142.714L68.6487 140.372L68.0705 139.556ZM61.4609 144.241L58.1561 146.583L58.7344 147.399L62.0392 145.057L61.4609 144.241ZM54.8514 148.926L51.5466 151.268L52.1249 152.084L55.4296 149.741L54.8514 148.926ZM48.2418 153.61L44.9371 155.953L45.5153 156.769L48.8201 154.426L48.2418 153.61ZM41.6323 158.295L39.9798 159.466L40.5581 160.282L42.2105 159.111L41.6323 158.295ZM39.9167 159.52L39.8494 159.586L40.554 160.296L40.6213 160.229L39.9167 159.52ZM39.7149 159.72L39.6477 159.787L40.3523 160.496L40.4195 160.43L39.7149 159.72ZM39.5 160.141V160.208H40.5V160.141H39.5ZM39.5 160.342V160.409H40.5V160.342H39.5ZM39.5 160.409L39.5018 162.413L40.5018 162.412L40.5 160.408L39.5 160.409ZM39.5055 166.419L39.5092 170.426L40.5092 170.425L40.5055 166.418L39.5055 166.419ZM39.5129 174.433L39.5166 178.44L40.5166 178.439L40.5129 174.432L39.5129 174.433ZM39.5203 182.446L39.5239 186.453L40.5239 186.452L40.5202 182.445L39.5203 182.446ZM39.5276 190.46L39.5313 194.467L40.5313 194.466L40.5276 190.459L39.5276 190.46ZM39.535 198.473L39.5387 202.48L40.5387 202.479L40.535 198.473L39.535 198.473ZM39.5424 206.487L39.5461 210.494L40.5461 210.493L40.5424 206.486L39.5424 206.487ZM39.5497 214.501L39.5534 218.507L40.5534 218.506L40.5497 214.5L39.5497 214.501ZM39.5571 222.514L39.5608 226.521L40.5608 226.52L40.5571 222.513L39.5571 222.514ZM39.5645 230.528L39.5681 234.534L40.5681 234.534L40.5645 230.527L39.5645 230.528ZM39.5718 238.541L39.5755 242.548L40.5755 242.547L40.5718 238.54L39.5718 238.541ZM39.5792 246.555L39.5829 250.562L40.5829 250.561L40.5792 246.554L39.5792 246.555ZM39.5866 254.568L39.5903 258.575L40.5903 258.574L40.5866 254.567L39.5866 254.568ZM39.5939 262.582L39.5976 266.589L40.5976 266.588L40.5939 262.581L39.5939 262.582ZM39.6013 270.595L39.605 274.602L40.605 274.601L40.6013 270.594L39.6013 270.595ZM39.6087 278.609L39.6124 282.616L40.6124 282.615L40.6087 278.608L39.6087 278.609ZM39.616 286.622L39.6197 290.629L40.6197 290.628L40.616 286.622L39.616 286.622ZM39.6234 294.636L39.6271 298.643L40.6271 298.642L40.6234 294.635L39.6234 294.636ZM39.6308 302.65L39.6345 306.656L40.6345 306.655L40.6308 302.649L39.6308 302.65ZM39.6382 310.663L39.6418 314.67L40.6418 314.669L40.6381 310.662L39.6382 310.663ZM39.6455 318.677L39.6492 322.683L40.6492 322.683L40.6455 318.676L39.6455 318.677ZM39.6529 326.69L39.6566 330.697L40.6566 330.696L40.6529 326.689L39.6529 326.69ZM39.6602 334.704L39.6639 338.711L40.6639 338.71L40.6602 334.703L39.6602 334.704ZM39.6676 342.717L39.6713 346.724L40.6713 346.723L40.6676 342.716L39.6676 342.717ZM39.675 350.731L39.6787 354.738L40.6787 354.737L40.675 350.73L39.675 350.731ZM39.6824 358.744L39.686 362.751L40.686 362.75L40.6824 358.743L39.6824 358.744ZM39.6897 366.758L39.6934 370.765L40.6934 370.764L40.6897 366.757L39.6897 366.758ZM39.6971 374.771L39.7008 378.778L40.7008 378.777L40.6971 374.771L39.6971 374.771ZM39.7045 382.785L39.7081 386.792L40.7081 386.791L40.7045 382.784L39.7045 382.785ZM39.7118 390.799L39.7155 394.805L40.7155 394.804L40.7118 390.798L39.7118 390.799ZM39.7192 398.812L39.7229 402.819L40.7229 402.818L40.7192 398.811L39.7192 398.812ZM39.7266 406.826L39.7302 410.832L40.7302 410.832L40.7266 406.825L39.7266 406.826ZM39.7339 414.839L39.7376 418.846L40.7376 418.845L40.7339 414.838L39.7339 414.839ZM39.7413 422.853L39.745 426.86L40.745 426.859L40.7413 422.852L39.7413 422.853ZM39.7487 430.866L39.7523 434.873L40.7523 434.872L40.7487 430.865L39.7487 430.866ZM39.756 438.88L39.7597 442.887L40.7597 442.886L40.756 438.879L39.756 438.88ZM39.7634 446.893L39.7671 450.9L40.7671 450.899L40.7634 446.892L39.7634 446.893ZM39.7708 454.907L39.7745 458.914L40.7745 458.913L40.7708 454.906L39.7708 454.907ZM39.7781 462.921L39.7818 466.927L40.7818 466.926L40.7781 462.92L39.7781 462.921ZM39.7855 470.934L39.7892 474.941L40.7892 474.94L40.7855 470.933L39.7855 470.934ZM39.7929 478.948L39.7966 482.954L40.7966 482.953L40.7929 478.947L39.7929 478.948ZM39.8002 486.961L39.8039 490.968L40.8039 490.967L40.8002 486.96L39.8002 486.961ZM39.8076 494.975L39.8113 498.981L40.8113 498.981L40.8076 494.974L39.8076 494.975ZM39.815 502.988L39.8187 506.995L40.8187 506.994L40.815 502.987L39.815 502.988ZM39.8223 511.002L39.826 515.009L40.826 515.008L40.8223 511.001L39.8223 511.002ZM39.8297 519.015L39.8334 523.022L40.8334 523.021L40.8297 519.014L39.8297 519.015ZM39.8371 527.029L39.8408 531.036L40.8408 531.035L40.8371 527.028L39.8371 527.029ZM39.8445 535.042L39.8481 539.049L40.8481 539.048L40.8445 535.042L39.8445 535.042ZM39.8518 543.056L39.8555 547.063L40.8555 547.062L40.8518 543.055L39.8518 543.056ZM39.8592 551.07L39.8629 555.076L40.8629 555.075L40.8592 551.069L39.8592 551.07ZM39.8666 559.083L39.8702 563.09L40.8702 563.089L40.8666 559.082L39.8666 559.083ZM39.8739 567.097L39.8776 571.103L40.8776 571.102L40.8739 567.096L39.8739 567.097ZM39.8813 575.11L39.885 579.117L40.885 579.116L40.8813 575.109L39.8813 575.11ZM39.8887 583.124L39.8923 587.13L40.8923 587.13L40.8887 583.123L39.8887 583.124ZM39.896 591.137L39.8997 595.144L40.8997 595.143L40.896 591.136L39.896 591.137ZM39.9034 599.151L39.9071 603.158L40.9071 603.157L40.9034 599.15L39.9034 599.151ZM39.9108 607.164L39.9144 611.171L40.9144 611.17L40.9108 607.163L39.9108 607.164ZM39.9181 615.178L39.9218 619.185L40.9218 619.184L40.9181 615.177L39.9181 615.178ZM39.9255 623.191L39.9292 627.198L40.9292 627.197L40.9255 623.191L39.9255 623.191ZM39.9329 631.205L39.9366 635.212L40.9366 635.211L40.9329 631.204L39.9329 631.205ZM39.9402 639.219L39.9439 643.225L40.9439 643.224L40.9402 639.218L39.9402 639.219ZM39.9476 647.232L39.9513 651.239L40.9513 651.238L40.9476 647.231L39.9476 647.232ZM39.955 655.246L39.9587 659.252L40.9587 659.251L40.955 655.245L39.955 655.246ZM39.9623 663.259L39.966 667.266L40.966 667.265L40.9623 663.258L39.9623 663.259ZM39.9697 671.273L39.9734 675.279L40.9734 675.279L40.9697 671.272L39.9697 671.273ZM39.9771 679.286L39.9808 683.293L40.9808 683.292L40.9771 679.285L39.9771 679.286ZM39.9845 687.3L39.9881 691.307L40.9881 691.306L40.9845 687.299L39.9845 687.3ZM39.9918 695.313L39.9955 699.32L40.9955 699.319L40.9918 695.312L39.9918 695.313ZM39.9992 703.327L40.0029 707.334L41.0029 707.333L40.9992 703.326L39.9992 703.327ZM40.0065 711.34L40.0102 715.347L41.0102 715.346L41.0065 711.34L40.0065 711.34ZM40.0139 719.354L40.0176 723.361L41.0176 723.36L41.0139 719.353L40.0139 719.354ZM40.0213 727.368L40.025 731.374L41.025 731.373L41.0213 727.367L40.0213 727.368ZM40.0287 735.381L40.0323 739.388L41.0323 739.387L41.0287 735.38L40.0287 735.381ZM40.036 743.395L40.0379 745.398L41.0379 745.397L41.036 743.394L40.036 743.395ZM40.0379 745.397V745.798H41.0379V745.397H40.0379ZM40.0379 746.599V747H41.0379V746.599H40.0379ZM40.7938 747.43L41.13 747.229L40.6181 746.37L40.2819 746.57L40.7938 747.43ZM41.8023 746.828L42.1385 746.628L41.6265 745.769L41.2904 745.969L41.8023 746.828ZM42.1732 746.605L43.823 745.427L43.2416 744.613L41.5918 745.792L42.1732 746.605ZM47.1226 743.069L50.4222 740.711L49.8408 739.897L46.5412 742.255L47.1226 743.069ZM53.7218 738.353L57.0214 735.995L56.44 735.182L53.1404 737.539L53.7218 738.353ZM60.3211 733.637L63.6207 731.28L63.0393 730.466L59.7397 732.824L60.3211 733.637ZM66.9203 728.922L70.2199 726.564L69.6385 725.75L66.3389 728.108L66.9203 728.922ZM73.5195 724.206L76.8191 721.848L76.2377 721.035L72.9381 723.392L73.5195 724.206ZM80.1187 719.49L83.4183 717.133L82.8369 716.319L79.5373 718.677L80.1187 719.49ZM86.7179 714.775L90.0175 712.417L89.4361 711.603L86.1365 713.961L86.7179 714.775ZM93.3171 710.059L96.6167 707.701L96.0353 706.888L92.7357 709.245L93.3171 710.059ZM99.9164 705.343L103.216 702.986L102.635 702.172L99.335 704.53L99.9164 705.343ZM106.516 700.628L109.815 698.27L109.234 697.456L105.934 699.814L106.516 700.628ZM113.115 695.912L116.414 693.554L115.833 692.741L112.533 695.098L113.115 695.912ZM119.714 691.196L123.014 688.839L122.432 688.025L119.133 690.383L119.714 691.196ZM126.313 686.481L129.613 684.123L129.031 683.309L125.732 685.667L126.313 686.481ZM132.912 681.765L136.212 679.407L135.631 678.594L132.331 680.951L132.912 681.765ZM139.512 677.049L142.811 674.692L142.23 673.878L138.93 676.236L139.512 677.049ZM146.111 672.334L149.41 669.976L148.829 669.162L145.529 671.52L146.111 672.334ZM152.71 667.618L156.01 665.26L155.428 664.447L152.129 666.804L152.71 667.618ZM159.309 662.902L162.609 660.545L162.028 659.731L158.728 662.089L159.309 662.902ZM165.909 658.187L169.208 655.829L168.627 655.015L165.327 657.373L165.909 658.187ZM172.508 653.471L175.807 651.113L175.226 650.3L171.926 652.657L172.508 653.471ZM179.107 648.755L182.407 646.398L181.825 645.584L178.526 647.942L179.107 648.755ZM185.706 644.04L189.006 641.682L188.424 640.868L185.125 643.226L185.706 644.04ZM192.305 639.324L195.605 636.966L195.024 636.153L191.724 638.51L192.305 639.324ZM198.905 634.608L202.204 632.251L201.623 631.437L198.323 633.795L198.905 634.608ZM205.504 629.893L208.803 627.535L208.222 626.721L204.922 629.079L205.504 629.893ZM212.103 625.177L213.753 623.998L213.171 623.185L211.522 624.363L212.103 625.177ZM213.685 624.039L213.819 623.972L213.374 623.077L213.24 623.144L213.685 624.039ZM214.088 623.839L214.222 623.772L213.778 622.876L213.643 622.943L214.088 623.839ZM214.5 623.324V623.258H213.5V623.324H214.5ZM214.5 623.124V623.057H213.5V623.124H214.5ZM214.5 623.057L214.499 621.072L213.499 621.073L213.5 623.058L214.5 623.057ZM214.496 617.102L214.493 613.132L213.493 613.133L213.496 617.103L214.496 617.102ZM214.49 609.162L214.487 605.193L213.487 605.193L213.49 609.163L214.49 609.162ZM214.484 601.223L214.481 597.253L213.481 597.254L213.484 601.223L214.484 601.223ZM214.479 593.283L214.476 589.313L213.476 589.314L213.479 593.284L214.479 593.283ZM214.473 585.343L214.47 581.374L213.47 581.374L213.473 585.344L214.473 585.343ZM214.467 577.404L214.464 573.434L213.464 573.435L213.467 577.405L214.467 577.404ZM214.461 569.464L214.459 565.494L213.459 565.495L213.461 569.465L214.461 569.464ZM214.456 561.524L214.453 557.555L213.453 557.555L213.456 561.525L214.456 561.524ZM214.45 553.585L214.447 549.615L213.447 549.616L213.45 553.586L214.45 553.585ZM214.444 545.645L214.441 541.675L213.441 541.676L213.444 545.646L214.444 545.645ZM214.438 537.705L214.436 533.736L213.436 533.736L213.438 537.706L214.438 537.705ZM214.433 529.766L214.43 525.796L213.43 525.797L213.433 529.767L214.433 529.766ZM214.427 521.826L214.424 517.856L213.424 517.857L213.427 521.827L214.427 521.826ZM214.421 513.887L214.418 509.917L213.418 509.917L213.421 513.887L214.421 513.887ZM214.416 505.947L214.413 501.977L213.413 501.978L213.416 505.948L214.416 505.947ZM214.41 498.007L214.407 494.037L213.407 494.038L213.41 498.008L214.41 498.007ZM214.404 490.068L214.401 486.098L213.401 486.098L213.404 490.068L214.404 490.068ZM214.398 482.128L214.396 478.158L213.396 478.159L213.398 482.129L214.398 482.128ZM214.393 474.188L214.39 470.218L213.39 470.219L213.393 474.189L214.393 474.188ZM214.387 466.249L214.384 462.279L213.384 462.279L213.387 466.249L214.387 466.249ZM214.381 458.309L214.378 454.339L213.378 454.34L213.381 458.31L214.381 458.309ZM214.376 450.369L214.373 446.399L213.373 446.4L213.376 450.37L214.376 450.369ZM214.37 442.43L214.367 438.46L213.367 438.46L213.37 442.43L214.37 442.43ZM214.364 434.49L214.361 430.52L213.361 430.521L213.364 434.491L214.364 434.49ZM214.358 426.55L214.355 422.58L213.355 422.581L213.358 426.551L214.358 426.55ZM214.353 418.611L214.35 414.641L213.35 414.641L213.353 418.611L214.353 418.611ZM214.347 410.671L214.344 406.701L213.344 406.702L213.347 410.672L214.347 410.671ZM214.341 402.731L214.338 398.761L213.338 398.762L213.341 402.732L214.341 402.731ZM214.335 394.792L214.333 390.822L213.333 390.822L213.335 394.792L214.335 394.792ZM214.33 386.852L214.327 382.882L213.327 382.883L213.33 386.853L214.33 386.852ZM214.324 378.912L214.321 374.942L213.321 374.943L213.324 378.913L214.324 378.912ZM214.318 370.973L214.315 367.003L213.315 367.003L213.318 370.973L214.318 370.973ZM214.313 363.033L214.31 359.063L213.31 359.064L213.313 363.034L214.313 363.033ZM214.307 355.093L214.304 351.123L213.304 351.124L213.307 355.094L214.307 355.093ZM214.301 347.154L214.298 343.184L213.298 343.185L213.301 347.154L214.301 347.154ZM214.295 339.214L214.293 335.244L213.293 335.245L213.295 339.215L214.295 339.214ZM214.29 331.274L214.287 327.305L213.287 327.305L213.29 331.275L214.29 331.274ZM214.284 323.335L214.281 319.365L213.281 319.366L213.284 323.335L214.284 323.335ZM214.278 315.395L214.275 311.425L213.275 311.426L213.278 315.396L214.278 315.395ZM214.273 307.455L214.27 303.486L213.27 303.486L213.273 307.456L214.273 307.455ZM214.267 299.516L214.264 295.546L213.264 295.547L213.267 299.517L214.267 299.516ZM214.261 291.576L214.258 287.606L213.258 287.607L213.261 291.577L214.261 291.576ZM214.255 283.637L214.252 279.667L213.252 279.667L213.255 283.637L214.255 283.637ZM214.25 275.697L214.247 271.727L213.247 271.728L213.25 275.698L214.25 275.697ZM214.244 267.757L214.241 263.787L213.241 263.788L213.244 267.758L214.244 267.757ZM214.238 259.818L214.235 255.848L213.235 255.849L213.238 259.818L214.238 259.818ZM214.232 251.878L214.231 249.893L213.231 249.894L213.232 251.879L214.232 251.878ZM214.231 249.893V249.493H213.231V249.893H214.231ZM214.231 248.691V248.291H213.231V248.691H214.231ZM213.42 247.899L213.084 248.166L213.706 248.949L214.042 248.682L213.42 247.899ZM212.411 248.7L212.075 248.967L212.697 249.75L213.034 249.483L212.411 248.7ZM212.097 248.951L210.473 250.106L211.053 250.921L212.676 249.766L212.097 248.951ZM207.227 252.414L203.981 254.723L204.56 255.538L207.807 253.229L207.227 252.414ZM200.734 257.032L197.488 259.34L198.067 260.155L201.314 257.847L200.734 257.032ZM194.241 261.649L190.995 263.958L191.574 264.773L194.821 262.464L194.241 261.649ZM187.749 266.266L184.502 268.575L185.082 269.39L188.328 267.081L187.749 266.266ZM181.256 270.884L178.009 273.193L178.589 274.007L181.835 271.699L181.256 270.884ZM174.763 275.501L171.516 277.81L172.096 278.625L175.342 276.316L174.763 275.501ZM168.27 280.118L166.647 281.273L167.226 282.088L168.85 280.933L168.27 280.118ZM166.584 281.326L166.517 281.392L167.222 282.102L167.289 282.035L166.584 281.326ZM166.383 281.526L166.315 281.593L167.02 282.302L167.087 282.235L166.383 281.526ZM166.168 281.947V282.014H167.168V281.947H166.168ZM166.168 282.148V282.214H167.168V282.148H166.168ZM166.168 282.214V284.196H167.168V282.214H166.168ZM166.168 288.16V292.123H167.168V288.16H166.168ZM166.168 296.086V300.05H167.168V296.086H166.168ZM166.168 304.013V307.976H167.168V304.013H166.168ZM166.168 311.94V315.903H167.168V311.94H166.168ZM166.168 319.866V323.83H167.168V319.866H166.168ZM166.168 327.793V331.757H167.168V327.793H166.168ZM166.168 335.72V339.683H167.168V335.72H166.168ZM166.168 343.647V347.61H167.168V343.647H166.168ZM166.168 351.573V355.537H167.168V351.573H166.168ZM166.168 359.5V363.463H167.168V359.5H166.168ZM166.168 367.427V371.39H167.168V367.427H166.168ZM166.168 375.354V379.317H167.168V375.354H166.168ZM166.168 383.28V387.244H167.168V383.28H166.168ZM166.168 391.207V395.17H167.168V391.207H166.168ZM166.168 399.134V403.097H167.168V399.134H166.168ZM166.168 407.06V411.024H167.168V407.06H166.168ZM166.168 414.987V418.951H167.168V414.987H166.168ZM166.168 422.914V426.877H167.168V422.914H166.168ZM166.168 430.841V434.804H167.168V430.841H166.168ZM166.168 438.767V442.731H167.168V438.767H166.168ZM166.168 446.694V450.657H167.168V446.694H166.168ZM166.168 454.621V458.584H167.168V454.621H166.168ZM166.168 462.548V466.511H167.168V462.548H166.168ZM166.168 470.474V474.438H167.168V470.474H166.168ZM166.168 478.401V482.364H167.168V478.401H166.168ZM166.168 486.328V490.291H167.168V486.328H166.168ZM166.168 494.254V498.218H167.168V494.254H166.168ZM166.168 502.181V506.145H167.168V502.181H166.168ZM166.168 510.108V514.071H167.168V510.108H166.168ZM166.168 518.035V521.998H167.168V518.035H166.168ZM166.168 525.961V529.925H167.168V525.961H166.168ZM166.168 533.888V537.851H167.168V533.888H166.168ZM166.168 541.815V545.778H167.168V541.815H166.168ZM166.168 549.742V553.705H167.168V549.742H166.168ZM166.168 557.668V561.632H167.168V557.668H166.168ZM166.168 565.595V569.558H167.168V565.595H166.168ZM166.168 573.522V577.485H167.168V573.522H166.168ZM166.168 581.449V585.412H167.168V581.449H166.168ZM166.168 589.375V593.339H167.168V589.375H166.168ZM166.168 597.302V599.284H167.168V597.302H166.168ZM166.377 598.877L164.729 600.057L165.312 600.87L166.959 599.69L166.377 598.877ZM161.435 602.417L158.14 604.776L158.723 605.589L162.017 603.229L161.435 602.417ZM154.846 607.136L151.552 609.495L152.134 610.308L155.428 607.949L154.846 607.136ZM148.257 611.855L144.963 614.214L145.545 615.027L148.839 612.668L148.257 611.855ZM141.668 616.574L138.374 618.933L138.956 619.746L142.251 617.387L141.668 616.574ZM135.079 621.293L131.785 623.652L132.367 624.465L135.662 622.106L135.079 621.293ZM128.491 626.012L125.196 628.371L125.778 629.184L129.073 626.825L128.491 626.012ZM121.902 630.731L118.607 633.091L119.189 633.904L122.484 631.544L121.902 630.731ZM115.313 635.45L112.018 637.81L112.601 638.623L115.895 636.263L115.313 635.45ZM108.724 640.169L105.429 642.529L106.012 643.342L109.306 640.982L108.724 640.169ZM102.135 644.888L98.8406 647.248L99.4229 648.061L102.717 645.701L102.135 644.888ZM95.5462 649.607L92.2517 651.967L92.834 652.78L96.1285 650.42L95.5462 649.607ZM88.9573 654.326L87.3101 655.506L87.8924 656.319L89.5396 655.139L88.9573 654.326ZM88.1012 655.912L88.099 653.913L87.099 653.914L87.1012 655.913L88.1012 655.912ZM88.0944 649.916L88.0898 645.918L87.0898 645.919L87.0944 649.917L88.0944 649.916ZM88.0853 641.92L88.0807 637.922L87.0807 637.924L87.0853 641.921L88.0853 641.92ZM88.0762 633.925L88.0716 629.927L87.0716 629.928L87.0762 633.926L88.0762 633.925ZM88.067 625.929L88.0625 621.932L87.0625 621.933L87.067 625.93L88.067 625.929ZM88.0579 617.934L88.0534 613.936L87.0534 613.937L87.0579 617.935L88.0579 617.934ZM88.0488 609.938L88.0443 605.941L87.0443 605.942L87.0488 609.94L88.0488 609.938ZM88.0397 601.943L88.0351 597.945L87.0351 597.946L87.0397 601.944L88.0397 601.943ZM88.0306 593.948L88.026 589.95L87.026 589.951L87.0306 593.949L88.0306 593.948ZM88.0215 585.952L88.0169 581.954L87.0169 581.956L87.0215 585.953L88.0215 585.952ZM88.0124 577.957L88.0078 573.959L87.0078 573.96L87.0124 577.958L88.0124 577.957ZM88.0032 569.961L87.9987 565.964L86.9987 565.965L87.0032 569.962L88.0032 569.961ZM87.9941 561.966L87.9896 557.968L86.9896 557.969L86.9941 561.967L87.9941 561.966ZM87.985 553.97L87.9804 549.973L86.9804 549.974L86.985 553.972L87.985 553.97ZM87.9759 545.975L87.9713 541.977L86.9713 541.978L86.9759 545.976L87.9759 545.975ZM87.9668 537.98L87.9622 533.982L86.9622 533.983L86.9668 537.981L87.9668 537.98ZM87.9576 529.984L87.9531 525.986L86.9531 525.988L86.9576 529.985L87.9576 529.984ZM87.9485 521.989L87.944 517.991L86.944 517.992L86.9485 521.99L87.9485 521.989ZM87.9394 513.993L87.9349 509.995L86.9349 509.997L86.9394 513.994L87.9394 513.993ZM87.9303 505.998L87.9257 502L86.9257 502.001L86.9303 505.999L87.9303 505.998ZM87.9212 498.002L87.9166 494.005L86.9166 494.006L86.9212 498.003L87.9212 498.002ZM87.9121 490.007L87.9075 486.009L86.9075 486.01L86.9121 490.008L87.9121 490.007ZM87.9029 482.011L87.8984 478.014L86.8984 478.015L86.9029 482.013L87.9029 482.011ZM87.8938 474.016L87.8893 470.018L86.8893 470.019L86.8938 474.017L87.8938 474.016ZM87.8847 466.021L87.8802 462.023L86.8802 462.024L86.8847 466.022L87.8847 466.021ZM87.8756 458.025L87.871 454.027L86.871 454.028L86.8756 458.026L87.8756 458.025ZM87.8665 450.03L87.8619 446.032L86.8619 446.033L86.8665 450.031L87.8665 450.03ZM87.8574 442.034L87.8528 438.036L86.8528 438.038L86.8574 442.035L87.8574 442.034ZM87.8483 434.039L87.8437 430.041L86.8437 430.042L86.8483 434.04L87.8483 434.039ZM87.8391 426.043L87.8346 422.046L86.8346 422.047L86.8391 426.044L87.8391 426.043ZM87.83 418.048L87.8255 414.05L86.8255 414.051L86.83 418.049L87.83 418.048ZM87.8209 410.052L87.8163 406.055L86.8163 406.056L86.8209 410.054L87.8209 410.052ZM87.8118 402.057L87.8072 398.059L86.8072 398.06L86.8118 402.058L87.8118 402.057ZM87.8027 394.061L87.7981 390.064L86.7981 390.065L86.8027 394.063L87.8027 394.061ZM87.7935 386.066L87.789 382.068L86.789 382.07L86.7935 386.067L87.7935 386.066ZM87.7844 378.071L87.7799 374.073L86.7799 374.074L86.7844 378.072L87.7844 378.071ZM87.7753 370.075L87.7708 366.078L86.7708 366.079L86.7753 370.076L87.7753 370.075ZM87.7662 362.08L87.7616 358.082L86.7616 358.083L86.7662 362.081L87.7662 362.08ZM87.7571 354.084L87.7525 350.087L86.7525 350.088L86.7571 354.086L87.7571 354.084ZM87.748 346.089L87.7434 342.091L86.7434 342.092L86.748 346.09L87.748 346.089ZM87.7388 338.094L87.7343 334.096L86.7343 334.097L86.7389 338.095L87.7388 338.094ZM87.7297 330.098L87.7252 326.1L86.7252 326.102L86.7297 330.099L87.7297 330.098ZM87.7206 322.103L87.7161 318.105L86.7161 318.106L86.7206 322.104L87.7206 322.103ZM87.7115 314.107L87.7069 310.11L86.7069 310.111L86.7115 314.108L87.7115 314.107ZM87.7024 306.112L87.6978 302.114L86.6978 302.115L86.7024 306.113L87.7024 306.112ZM87.6933 298.117L87.6887 294.119L86.6887 294.12L86.6933 298.118L87.6933 298.117ZM87.6842 290.121L87.6796 286.123L86.6796 286.125L86.6842 290.122L87.6842 290.121ZM87.675 282.126L87.6705 278.128L86.6705 278.129L86.675 282.127L87.675 282.126ZM87.6659 274.13L87.6614 270.133L86.6614 270.134L86.6659 274.131L87.6659 274.13ZM87.6568 266.135L87.6522 262.137L86.6522 262.138L86.6568 266.136L87.6568 266.135ZM87.6477 258.139L87.6431 254.142L86.6431 254.143L86.6477 258.141L87.6477 258.139ZM87.6386 250.144L87.634 246.146L86.634 246.147L86.6386 250.145L87.6386 250.144ZM87.6294 242.149L87.6249 238.151L86.6249 238.152L86.6294 242.15L87.6294 242.149ZM87.6203 234.153L87.6158 230.155L86.6158 230.157L86.6203 234.154L87.6203 234.153ZM87.6112 226.158L87.6067 222.16L86.6067 222.161L86.6112 226.159L87.6112 226.158ZM87.6021 218.162L87.5975 214.165L86.5975 214.166L86.6021 218.163L87.6021 218.162ZM87.593 210.167L87.5884 206.169L86.5884 206.17L86.593 210.168L87.593 210.167ZM87.5839 202.172L87.5793 198.174L86.5793 198.175L86.5839 202.173L87.5839 202.172ZM87.5748 194.176L87.5702 190.178L86.5702 190.18L86.5748 194.177L87.5748 194.176ZM87.5656 186.181L87.5634 184.182L86.5634 184.183L86.5656 186.182L87.5656 186.181ZM87.0634 184.182L86.4817 183.369L86.0628 183.668L86.0634 184.183L87.0634 184.182ZM87.6012 655.913L86.6012 655.914L86.6035 657.857L88.1835 656.726L87.6012 655.913ZM166.668 599.284L167.25 600.097L167.668 599.797V599.284H166.668ZM166.668 281.947L165.963 281.238L165.668 281.531V281.947H166.668ZM166.937 281.68L166.357 280.865L166.29 280.913L166.232 280.971L166.937 281.68ZM212.386 249.359L212.966 250.174L212.988 250.158L213.008 250.142L212.386 249.359ZM213.731 248.291H214.731V246.219L213.109 247.508L213.731 248.291ZM213.731 249.893H212.731L212.731 249.894L213.731 249.893ZM214 623.057H215L215 623.056L214 623.057ZM214 623.324L214.445 624.22L215 623.944V623.324H214ZM213.462 623.591L213.017 622.696L212.946 622.731L212.881 622.778L213.462 623.591ZM41.8825 746.199L42.3945 747.058L42.4301 747.036L42.4639 747.012L41.8825 746.199ZM40.5379 747H39.5379V748.76L41.0498 747.859L40.5379 747ZM40.5379 745.397H41.5379V745.396L40.5379 745.397ZM40 160.409H39V160.41L40 160.409ZM40 160.141L39.2954 159.432L39 159.725V160.141H40ZM40.269 159.874L39.6907 159.059L39.6231 159.106L39.5644 159.165L40.269 159.874ZM212.117 38.0685L212.696 38.8844L212.718 38.8685L212.74 38.8514L212.117 38.0685ZM213.462 37H214.462V34.9281L212.84 36.2171L213.462 37ZM213.462 94.6976L214.167 95.4072L214.462 95.1139V94.6976H213.462ZM213.193 94.9647L213.766 95.7842L213.837 95.7349L213.898 95.6743L213.193 94.9647ZM167.743 126.752H166.743V128.671L168.317 127.571L167.743 126.752ZM167.743 126.485H168.743V124.54L167.162 125.671L167.743 126.485ZM87.6451 184.996L89.3259 183.794L88.1625 182.167L86.4817 183.369L87.6451 184.996ZM92.6876 181.389L96.0492 178.985L94.8858 177.359L91.5242 179.763L92.6876 181.389ZM99.4109 176.581L102.773 174.177L101.609 172.55L98.2475 174.955L99.4109 176.581ZM106.134 171.773L109.496 169.369L108.333 167.742L104.971 170.146L106.134 171.773ZM112.858 166.965L116.219 164.561L115.056 162.934L111.694 165.338L112.858 166.965ZM119.581 162.157L122.943 159.753L121.779 158.126L118.418 160.53L119.581 162.157ZM126.304 157.349L129.666 154.945L128.503 153.318L125.141 155.722L126.304 157.349ZM133.028 152.541L136.389 150.137L135.226 148.51L131.864 150.914L133.028 152.541ZM139.751 147.733L143.113 145.329L141.949 143.702L138.588 146.106L139.751 147.733ZM146.474 142.924L149.836 140.52L148.673 138.894L145.311 141.298L146.474 142.924ZM153.198 138.116L156.559 135.712L155.396 134.086L152.034 136.49L153.198 138.116ZM159.921 133.308L163.283 130.904L162.119 129.277L158.758 131.681L159.921 133.308ZM166.644 128.5L168.325 127.298L167.162 125.671L165.481 126.873L166.644 128.5ZM166.743 126.485V126.551H168.743V126.485H166.743ZM166.743 126.685V126.752H168.743V126.685H166.743ZM168.317 127.571L169.94 126.436L168.793 124.797L167.17 125.932L168.317 127.571ZM173.186 124.165L176.433 121.895L175.286 120.256L172.04 122.526L173.186 124.165ZM179.679 119.624L182.925 117.354L181.779 115.715L178.533 117.986L179.679 119.624ZM186.172 115.083L189.418 112.813L188.272 111.174L185.026 113.445L186.172 115.083ZM192.665 110.542L195.911 108.272L194.765 106.633L191.518 108.904L192.665 110.542ZM199.157 106.001L202.404 103.731L201.258 102.092L198.011 104.362L199.157 106.001ZM205.65 101.46L208.897 99.1899L207.75 97.551L204.504 99.8215L205.65 101.46ZM212.143 96.9194L213.766 95.7842L212.62 94.1453L210.997 95.2805L212.143 96.9194ZM213.898 95.6743L213.965 95.6075L212.556 94.1884L212.489 94.2551L213.898 95.6743ZM214.099 95.474L214.167 95.4072L212.758 93.988L212.69 94.0548L214.099 95.474ZM214.462 94.6976V94.5641H212.462V94.6976H214.462ZM214.462 94.2969V94.1634H212.462V94.2969H214.462ZM214.462 94.1634V92.1791H212.462V94.1634H214.462ZM214.462 88.2104V84.2419H212.462V88.2104H214.462ZM214.462 80.2733V76.3046H212.462V80.2733H214.462ZM214.462 72.336V68.3674H212.462V72.336H214.462ZM214.462 64.3988V60.4302H212.462V64.3988H214.462ZM214.462 56.4615V52.4929H212.462V56.4615H214.462ZM214.462 48.5243V44.5557H212.462V48.5243H214.462ZM214.462 40.5871V38.6028H212.462V40.5871H214.462ZM214.462 38.6028V38.2021H212.462V38.6028H214.462ZM214.462 37.4007V37H212.462V37.4007H214.462ZM212.84 36.2171L212.504 36.4843L213.748 38.05L214.084 37.7829L212.84 36.2171ZM211.831 37.0185L211.495 37.2856L212.74 38.8514L213.076 38.5843L211.831 37.0185ZM211.539 37.2527L209.887 38.4239L211.043 40.0556L212.696 38.8844L211.539 37.2527ZM206.582 40.7663L203.277 43.1088L204.434 44.7404L207.739 42.398L206.582 40.7663ZM199.972 45.4512L196.668 47.7936L197.824 49.4253L201.129 47.0829L199.972 45.4512ZM193.363 50.136L190.058 52.4785L191.215 54.1101L194.519 51.7677L193.363 50.136ZM186.753 54.8209L183.449 57.1633L184.605 58.795L187.91 56.4525L186.753 54.8209ZM180.144 59.5057L176.839 61.8481L177.996 63.4798L181.3 61.1374L180.144 59.5057ZM173.534 64.1906L170.229 66.533L171.386 68.1646L174.691 65.8222L173.534 64.1906ZM166.925 68.8754L163.62 71.2178L164.776 72.8495L168.081 70.5071L166.925 68.8754ZM160.315 73.5602L157.01 75.9026L158.167 77.5343L161.472 75.1919L160.315 73.5602ZM153.706 78.2451L150.401 80.5875L151.557 82.2192L154.862 79.8768L153.706 78.2451ZM147.096 82.9299L143.791 85.2723L144.948 86.904L148.253 84.5616L147.096 82.9299ZM140.486 87.6147L137.182 89.9572L138.338 91.5889L141.643 89.2464L140.486 87.6147ZM133.877 92.2996L130.572 94.642L131.729 96.2737L135.033 93.9313L133.877 92.2996ZM127.267 96.9844L123.963 99.3268L125.119 100.959L128.424 98.6161L127.267 96.9844ZM120.658 101.669L117.353 104.012L118.51 105.643L121.814 103.301L120.658 101.669ZM114.048 106.354L110.743 108.697L111.9 110.328L115.205 107.986L114.048 106.354ZM107.439 111.039L104.134 113.381L105.29 115.013L108.595 112.671L107.439 111.039ZM100.829 115.724L97.5243 118.066L98.6809 119.698L101.986 117.355L100.829 115.724ZM94.2195 120.409L90.9148 122.751L92.0713 124.383L95.3761 122.04L94.2195 120.409ZM87.61 125.093L84.3052 127.436L85.4618 129.068L88.7665 126.725L87.61 125.093ZM81.0004 129.778L77.6957 132.121L78.8522 133.752L82.157 131.41L81.0004 129.778ZM74.3909 134.463L71.0861 136.806L72.2427 138.437L75.5474 136.095L74.3909 134.463ZM67.7813 139.148L64.4766 141.49L65.6331 143.122L68.9379 140.78L67.7813 139.148ZM61.1718 143.833L57.867 146.175L59.0235 147.807L62.3283 145.464L61.1718 143.833ZM54.5622 148.518L51.2575 150.86L52.414 152.492L55.7188 150.149L54.5622 148.518ZM47.9527 153.202L44.6479 155.545L45.8045 157.177L49.1092 154.834L47.9527 153.202ZM41.3431 157.887L39.6907 159.059L40.8472 160.69L42.4997 159.519L41.3431 157.887ZM39.5644 159.165L39.4971 159.232L40.9063 160.651L40.9736 160.584L39.5644 159.165ZM39.3626 159.365L39.2954 159.432L40.7046 160.851L40.7719 160.784L39.3626 159.365ZM39 160.141V160.208H41V160.141H39ZM39 160.342V160.409H41V160.342H39ZM39 160.41L39.0018 162.413L41.0018 162.411L41 160.408L39 160.41ZM39.0055 166.42L39.0092 170.427L41.0092 170.425L41.0055 166.418L39.0055 166.42ZM39.0129 174.433L39.0166 178.44L41.0166 178.438L41.0129 174.431L39.0129 174.433ZM39.0203 182.447L39.0239 186.454L41.0239 186.452L41.0202 182.445L39.0203 182.447ZM39.0276 190.46L39.0313 194.467L41.0313 194.465L41.0276 190.459L39.0276 190.46ZM39.035 198.474L39.0387 202.481L41.0387 202.479L41.035 198.472L39.035 198.474ZM39.0424 206.487L39.0461 210.494L41.0461 210.492L41.0424 206.486L39.0424 206.487ZM39.0497 214.501L39.0534 218.508L41.0534 218.506L41.0497 214.499L39.0497 214.501ZM39.0571 222.515L39.0608 226.521L41.0608 226.52L41.0571 222.513L39.0571 222.515ZM39.0645 230.528L39.0681 234.535L41.0681 234.533L41.0645 230.526L39.0645 230.528ZM39.0718 238.542L39.0755 242.548L41.0755 242.547L41.0718 238.54L39.0718 238.542ZM39.0792 246.555L39.0829 250.562L41.0829 250.56L41.0792 246.553L39.0792 246.555ZM39.0866 254.569L39.0903 258.576L41.0903 258.574L41.0866 254.567L39.0866 254.569ZM39.0939 262.582L39.0976 266.589L41.0976 266.587L41.0939 262.58L39.0939 262.582ZM39.1013 270.596L39.105 274.603L41.105 274.601L41.1013 270.594L39.1013 270.596ZM39.1087 278.609L39.1124 282.616L41.1124 282.614L41.1087 278.608L39.1087 278.609ZM39.116 286.623L39.1197 290.63L41.1197 290.628L41.116 286.621L39.116 286.623ZM39.1234 294.637L39.1271 298.643L41.1271 298.641L41.1234 294.635L39.1234 294.637ZM39.1308 302.65L39.1345 306.657L41.1345 306.655L41.1308 302.648L39.1308 302.65ZM39.1382 310.664L39.1418 314.67L41.1418 314.669L41.1381 310.662L39.1382 310.664ZM39.1455 318.677L39.1492 322.684L41.1492 322.682L41.1455 318.675L39.1455 318.677ZM39.1529 326.691L39.1566 330.697L41.1566 330.696L41.1529 326.689L39.1529 326.691ZM39.1602 334.704L39.1639 338.711L41.1639 338.709L41.1602 334.702L39.1602 334.704ZM39.1676 342.718L39.1713 346.725L41.1713 346.723L41.1676 342.716L39.1676 342.718ZM39.175 350.731L39.1787 354.738L41.1787 354.736L41.175 350.729L39.175 350.731ZM39.1824 358.745L39.186 362.752L41.186 362.75L41.1824 358.743L39.1824 358.745ZM39.1897 366.758L39.1934 370.765L41.1934 370.763L41.1897 366.757L39.1897 366.758ZM39.1971 374.772L39.2008 378.779L41.2008 378.777L41.1971 374.77L39.1971 374.772ZM39.2045 382.785L39.2081 386.792L41.2081 386.79L41.2045 382.784L39.2045 382.785ZM39.2118 390.799L39.2155 394.806L41.2155 394.804L41.2118 390.797L39.2118 390.799ZM39.2192 398.813L39.2229 402.819L41.2229 402.818L41.2192 398.811L39.2192 398.813ZM39.2266 406.826L39.2302 410.833L41.2302 410.831L41.2266 406.824L39.2266 406.826ZM39.2339 414.84L39.2376 418.846L41.2376 418.845L41.2339 414.838L39.2339 414.84ZM39.2413 422.853L39.245 426.86L41.245 426.858L41.2413 422.851L39.2413 422.853ZM39.2487 430.867L39.2523 434.874L41.2523 434.872L41.2487 430.865L39.2487 430.867ZM39.256 438.88L39.2597 442.887L41.2597 442.885L41.256 438.878L39.256 438.88ZM39.2634 446.894L39.2671 450.901L41.2671 450.899L41.2634 446.892L39.2634 446.894ZM39.2708 454.907L39.2745 458.914L41.2745 458.912L41.2708 454.906L39.2708 454.907ZM39.2781 462.921L39.2818 466.928L41.2818 466.926L41.2781 462.919L39.2781 462.921ZM39.2855 470.935L39.2892 474.941L41.2892 474.939L41.2855 470.933L39.2855 470.935ZM39.2929 478.948L39.2966 482.955L41.2966 482.953L41.2929 478.946L39.2929 478.948ZM39.3002 486.962L39.3039 490.968L41.3039 490.967L41.3002 486.96L39.3002 486.962ZM39.3076 494.975L39.3113 498.982L41.3113 498.98L41.3076 494.973L39.3076 494.975ZM39.315 502.989L39.3187 506.995L41.3187 506.994L41.315 502.987L39.315 502.989ZM39.3223 511.002L39.326 515.009L41.326 515.007L41.3223 511L39.3223 511.002ZM39.3297 519.016L39.3334 523.023L41.3334 523.021L41.3297 519.014L39.3297 519.016ZM39.3371 527.029L39.3408 531.036L41.3408 531.034L41.3371 527.028L39.3371 527.029ZM39.3445 535.043L39.3481 539.05L41.3481 539.048L41.3445 535.041L39.3445 535.043ZM39.3518 543.056L39.3555 547.063L41.3555 547.061L41.3518 543.055L39.3518 543.056ZM39.3592 551.07L39.3629 555.077L41.3629 555.075L41.3592 551.068L39.3592 551.07ZM39.3666 559.084L39.3702 563.09L41.3702 563.088L41.3666 559.082L39.3666 559.084ZM39.3739 567.097L39.3776 571.104L41.3776 571.102L41.3739 567.095L39.3739 567.097ZM39.3813 575.111L39.385 579.117L41.385 579.116L41.3813 575.109L39.3813 575.111ZM39.3887 583.124L39.3923 587.131L41.3923 587.129L41.3887 583.122L39.3887 583.124ZM39.396 591.138L39.3997 595.144L41.3997 595.143L41.396 591.136L39.396 591.138ZM39.4034 599.151L39.4071 603.158L41.4071 603.156L41.4034 599.149L39.4034 599.151ZM39.4108 607.165L39.4144 611.172L41.4144 611.17L41.4108 607.163L39.4108 607.165ZM39.4181 615.178L39.4218 619.185L41.4218 619.183L41.4181 615.177L39.4181 615.178ZM39.4255 623.192L39.4292 627.199L41.4292 627.197L41.4255 623.19L39.4255 623.192ZM39.4329 631.205L39.4366 635.212L41.4366 635.21L41.4329 631.204L39.4329 631.205ZM39.4402 639.219L39.4439 643.226L41.4439 643.224L41.4402 639.217L39.4402 639.219ZM39.4476 647.233L39.4513 651.239L41.4513 651.237L41.4476 647.231L39.4476 647.233ZM39.455 655.246L39.4587 659.253L41.4587 659.251L41.455 655.244L39.455 655.246ZM39.4623 663.26L39.466 667.266L41.466 667.265L41.4623 663.258L39.4623 663.26ZM39.4697 671.273L39.4734 675.28L41.4734 675.278L41.4697 671.271L39.4697 671.273ZM39.4771 679.287L39.4808 683.293L41.4808 683.292L41.4771 679.285L39.4771 679.287ZM39.4845 687.3L39.4881 691.307L41.4881 691.305L41.4845 687.298L39.4845 687.3ZM39.4918 695.314L39.4955 699.321L41.4955 699.319L41.4918 695.312L39.4918 695.314ZM39.4992 703.327L39.5029 707.334L41.5029 707.332L41.4992 703.326L39.4992 703.327ZM39.5065 711.341L39.5102 715.348L41.5102 715.346L41.5065 711.339L39.5065 711.341ZM39.5139 719.354L39.5176 723.361L41.5176 723.359L41.5139 719.353L39.5139 719.354ZM39.5213 727.368L39.525 731.375L41.525 731.373L41.5213 727.366L39.5213 727.368ZM39.5287 735.382L39.5323 739.388L41.5323 739.386L41.5287 735.38L39.5287 735.382ZM39.536 743.395L39.5379 745.398L41.5379 745.396L41.536 743.393L39.536 743.395ZM39.5379 745.397V745.798H41.5379V745.397H39.5379ZM39.5379 746.599V747H41.5379V746.599H39.5379ZM41.0498 747.859L41.386 747.659L40.3621 745.941L40.0259 746.141L41.0498 747.859ZM42.0583 747.258L42.3945 747.058L41.3706 745.34L41.0344 745.54L42.0583 747.258ZM42.4639 747.012L44.1137 745.833L42.9509 744.206L41.3011 745.385L42.4639 747.012ZM47.4133 743.476L50.7129 741.118L49.5501 739.49L46.2505 741.848L47.4133 743.476ZM54.0125 738.76L57.3121 736.402L56.1494 734.775L52.8497 737.133L54.0125 738.76ZM60.6118 734.044L63.9114 731.686L62.7486 730.059L59.449 732.417L60.6118 734.044ZM67.211 729.329L70.5106 726.971L69.3478 725.343L66.0482 727.701L67.211 729.329ZM73.8102 724.613L77.1098 722.255L75.947 720.628L72.6474 722.986L73.8102 724.613ZM80.4094 719.897L83.709 717.539L82.5462 715.912L79.2466 718.27L80.4094 719.897ZM87.0086 715.182L90.3082 712.824L89.1454 711.196L85.8458 713.554L87.0086 715.182ZM93.6078 710.466L96.9074 708.108L95.7446 706.481L92.445 708.839L93.6078 710.466ZM100.207 705.75L103.507 703.392L102.344 701.765L99.0443 704.123L100.207 705.75ZM106.806 701.035L110.106 698.677L108.943 697.049L105.643 699.407L106.806 701.035ZM113.405 696.319L116.705 693.961L115.542 692.334L112.243 694.692L113.405 696.319ZM120.005 691.603L123.304 689.245L122.142 687.618L118.842 689.976L120.005 691.603ZM126.604 686.888L129.904 684.53L128.741 682.902L125.441 685.26L126.604 686.888ZM133.203 682.172L136.503 679.814L135.34 678.187L132.04 680.545L133.203 682.172ZM139.802 677.456L143.102 675.098L141.939 673.471L138.64 675.829L139.802 677.456ZM146.402 672.741L149.701 670.383L148.538 668.755L145.239 671.113L146.402 672.741ZM153.001 668.025L156.3 665.667L155.138 664.04L151.838 666.398L153.001 668.025ZM159.6 663.309L162.9 660.951L161.737 659.324L158.437 661.682L159.6 663.309ZM166.199 658.594L169.499 656.236L168.336 654.608L165.036 656.966L166.199 658.594ZM172.798 653.878L176.098 651.52L174.935 649.893L171.636 652.251L172.798 653.878ZM179.398 649.162L182.697 646.804L181.535 645.177L178.235 647.535L179.398 649.162ZM185.997 644.447L189.297 642.089L188.134 640.462L184.834 642.819L185.997 644.447ZM192.596 639.731L195.896 637.373L194.733 635.746L191.433 638.104L192.596 639.731ZM199.195 635.015L202.495 632.657L201.332 631.03L198.033 633.388L199.195 635.015ZM205.795 630.3L209.094 627.942L207.931 626.315L204.632 628.672L205.795 630.3ZM212.394 625.584L214.044 624.405L212.881 622.778L211.231 623.957L212.394 625.584ZM213.907 624.487L214.041 624.42L213.152 622.629L213.017 622.696L213.907 624.487ZM214.31 624.287L214.445 624.22L213.555 622.429L213.421 622.495L214.31 624.287ZM215 623.324V623.258H213V623.324H215ZM215 623.124V623.057H213V623.124H215ZM215 623.056L214.999 621.072L212.999 621.073L213 623.058L215 623.056ZM214.996 617.102L214.993 613.132L212.993 613.133L212.996 617.103L214.996 617.102ZM214.99 609.162L214.987 605.192L212.987 605.194L212.99 609.164L214.99 609.162ZM214.984 601.222L214.981 597.253L212.981 597.254L212.984 601.224L214.984 601.222ZM214.979 593.283L214.976 589.313L212.976 589.314L212.979 593.284L214.979 593.283ZM214.973 585.343L214.97 581.373L212.97 581.375L212.973 585.345L214.973 585.343ZM214.967 577.403L214.964 573.434L212.964 573.435L212.967 577.405L214.967 577.403ZM214.961 569.464L214.959 565.494L212.959 565.495L212.961 569.465L214.961 569.464ZM214.956 561.524L214.953 557.554L212.953 557.556L212.956 561.526L214.956 561.524ZM214.95 553.584L214.947 549.615L212.947 549.616L212.95 553.586L214.95 553.584ZM214.944 545.645L214.941 541.675L212.941 541.676L212.944 545.646L214.944 545.645ZM214.938 537.705L214.936 533.735L212.936 533.737L212.938 537.707L214.938 537.705ZM214.933 529.765L214.93 525.796L212.93 525.797L212.933 529.767L214.933 529.765ZM214.927 521.826L214.924 517.856L212.924 517.857L212.927 521.827L214.927 521.826ZM214.921 513.886L214.918 509.916L212.918 509.918L212.921 513.888L214.921 513.886ZM214.916 505.946L214.913 501.977L212.913 501.978L212.916 505.948L214.916 505.946ZM214.91 498.007L214.907 494.037L212.907 494.038L212.91 498.008L214.91 498.007ZM214.904 490.067L214.901 486.097L212.901 486.099L212.904 490.069L214.904 490.067ZM214.898 482.128L214.896 478.158L212.896 478.159L212.898 482.129L214.898 482.128ZM214.893 474.188L214.89 470.218L212.89 470.219L212.893 474.189L214.893 474.188ZM214.887 466.248L214.884 462.278L212.884 462.28L212.887 466.25L214.887 466.248ZM214.881 458.309L214.878 454.339L212.878 454.34L212.881 458.31L214.881 458.309ZM214.876 450.369L214.873 446.399L212.873 446.4L212.876 450.37L214.876 450.369ZM214.87 442.429L214.867 438.459L212.867 438.461L212.87 442.431L214.87 442.429ZM214.864 434.49L214.861 430.52L212.861 430.521L212.864 434.491L214.864 434.49ZM214.858 426.55L214.855 422.58L212.855 422.581L212.858 426.551L214.858 426.55ZM214.853 418.61L214.85 414.64L212.85 414.642L212.853 418.612L214.853 418.61ZM214.847 410.671L214.844 406.701L212.844 406.702L212.847 410.672L214.847 410.671ZM214.841 402.731L214.838 398.761L212.838 398.762L212.841 402.732L214.841 402.731ZM214.835 394.791L214.833 390.821L212.833 390.823L212.835 394.793L214.835 394.791ZM214.83 386.852L214.827 382.882L212.827 382.883L212.83 386.853L214.83 386.852ZM214.824 378.912L214.821 374.942L212.821 374.943L212.824 378.913L214.824 378.912ZM214.818 370.972L214.815 367.002L212.815 367.004L212.818 370.974L214.818 370.972ZM214.813 363.033L214.81 359.063L212.81 359.064L212.813 363.034L214.813 363.033ZM214.807 355.093L214.804 351.123L212.804 351.125L212.807 355.094L214.807 355.093ZM214.801 347.153L214.798 343.183L212.798 343.185L212.801 347.155L214.801 347.153ZM214.795 339.214L214.793 335.244L212.793 335.245L212.795 339.215L214.795 339.214ZM214.79 331.274L214.787 327.304L212.787 327.306L212.79 331.275L214.79 331.274ZM214.784 323.334L214.781 319.365L212.781 319.366L212.784 323.336L214.784 323.334ZM214.778 315.395L214.775 311.425L212.775 311.426L212.778 315.396L214.778 315.395ZM214.773 307.455L214.77 303.485L212.77 303.487L212.773 307.457L214.773 307.455ZM214.767 299.515L214.764 295.546L212.764 295.547L212.767 299.517L214.767 299.515ZM214.761 291.576L214.758 287.606L212.758 287.607L212.761 291.577L214.761 291.576ZM214.755 283.636L214.752 279.666L212.752 279.668L212.755 283.638L214.755 283.636ZM214.75 275.697L214.747 271.727L212.747 271.728L212.75 275.698L214.75 275.697ZM214.744 267.757L214.741 263.787L212.741 263.789L212.744 267.758L214.744 267.757ZM214.738 259.817L214.735 255.847L212.735 255.849L212.738 259.819L214.738 259.817ZM214.732 251.878L214.731 249.892L212.731 249.894L212.732 251.879L214.732 251.878ZM214.731 249.893V249.493H212.731V249.893H214.731ZM214.731 248.691V248.291H212.731V248.691H214.731ZM213.109 247.508L212.773 247.775L214.017 249.341L214.353 249.073L213.109 247.508ZM212.1 248.309L211.764 248.576L213.008 250.142L213.345 249.875L212.1 248.309ZM211.807 248.544L210.184 249.698L211.343 251.328L212.966 250.174L211.807 248.544ZM206.937 252.007L203.691 254.316L204.85 255.946L208.096 253.637L206.937 252.007ZM200.444 256.624L197.198 258.933L198.357 260.563L201.603 258.254L200.444 256.624ZM193.952 261.242L190.705 263.55L191.864 265.18L195.111 262.872L193.952 261.242ZM187.459 265.859L184.212 268.168L185.371 269.798L188.618 267.489L187.459 265.859ZM180.966 270.476L177.72 272.785L178.879 274.415L182.125 272.106L180.966 270.476ZM174.473 275.094L171.227 277.402L172.386 279.032L175.632 276.724L174.473 275.094ZM167.98 279.711L166.357 280.865L167.516 282.495L169.139 281.341L167.98 279.711ZM166.232 280.971L166.165 281.037L167.574 282.457L167.641 282.39L166.232 280.971ZM166.03 281.171L165.963 281.238L167.372 282.657L167.439 282.59L166.03 281.171ZM165.668 281.947V282.014H167.668V281.947H165.668ZM165.668 282.148V282.214H167.668V282.148H165.668ZM165.668 282.214V284.196H167.668V282.214H165.668ZM165.668 288.16V292.123H167.668V288.16H165.668ZM165.668 296.086V300.05H167.668V296.086H165.668ZM165.668 304.013V307.976H167.668V304.013H165.668ZM165.668 311.94V315.903H167.668V311.94H165.668ZM165.668 319.866V323.83H167.668V319.866H165.668ZM165.668 327.793V331.757H167.668V327.793H165.668ZM165.668 335.72V339.683H167.668V335.72H165.668ZM165.668 343.647V347.61H167.668V343.647H165.668ZM165.668 351.573V355.537H167.668V351.573H165.668ZM165.668 359.5V363.463H167.668V359.5H165.668ZM165.668 367.427V371.39H167.668V367.427H165.668ZM165.668 375.354V379.317H167.668V375.354H165.668ZM165.668 383.28V387.244H167.668V383.28H165.668ZM165.668 391.207V395.17H167.668V391.207H165.668ZM165.668 399.134V403.097H167.668V399.134H165.668ZM165.668 407.06V411.024H167.668V407.06H165.668ZM165.668 414.987V418.951H167.668V414.987H165.668ZM165.668 422.914V426.877H167.668V422.914H165.668ZM165.668 430.841V434.804H167.668V430.841H165.668ZM165.668 438.767V442.731H167.668V438.767H165.668ZM165.668 446.694V450.657H167.668V446.694H165.668ZM165.668 454.621V458.584H167.668V454.621H165.668ZM165.668 462.548V466.511H167.668V462.548H165.668ZM165.668 470.474V474.438H167.668V470.474H165.668ZM165.668 478.401V482.364H167.668V478.401H165.668ZM165.668 486.328V490.291H167.668V486.328H165.668ZM165.668 494.254V498.218H167.668V494.254H165.668ZM165.668 502.181V506.145H167.668V502.181H165.668ZM165.668 510.108V514.071H167.668V510.108H165.668ZM165.668 518.035V521.998H167.668V518.035H165.668ZM165.668 525.961V529.925H167.668V525.961H165.668ZM165.668 533.888V537.851H167.668V533.888H165.668ZM165.668 541.815V545.778H167.668V541.815H165.668ZM165.668 549.742V553.705H167.668V549.742H165.668ZM165.668 557.668V561.632H167.668V557.668H165.668ZM165.668 565.595V569.558H167.668V565.595H165.668ZM165.668 573.522V577.485H167.668V573.522H165.668ZM165.668 581.449V585.412H167.668V581.449H165.668ZM165.668 589.375V593.339H167.668V589.375H165.668ZM165.668 597.302V599.284H167.668V597.302H165.668ZM166.085 598.471L164.438 599.65L165.603 601.276L167.25 600.097L166.085 598.471ZM161.144 602.01L157.849 604.37L159.014 605.996L162.308 603.636L161.144 602.01ZM154.555 606.729L151.26 609.089L152.425 610.715L155.719 608.355L154.555 606.729ZM147.966 611.448L144.672 613.808L145.836 615.434L149.131 613.074L147.966 611.448ZM141.377 616.167L138.083 618.527L139.247 620.153L142.542 617.793L141.377 616.167ZM134.788 620.886L131.494 623.246L132.658 624.872L135.953 622.512L134.788 620.886ZM128.199 625.605L124.905 627.965L126.07 629.591L129.364 627.231L128.199 625.605ZM121.611 630.325L118.316 632.684L119.481 634.31L122.775 631.951L121.611 630.325ZM115.022 635.044L111.727 637.403L112.892 639.029L116.186 636.67L115.022 635.044ZM108.433 639.763L105.138 642.122L106.303 643.748L109.597 641.389L108.433 639.763ZM101.844 644.482L98.5495 646.841L99.714 648.467L103.008 646.108L101.844 644.482ZM95.255 649.201L91.9606 651.56L93.1252 653.186L96.4196 650.827L95.255 649.201ZM88.6662 653.92L87.019 655.1L88.1835 656.726L89.8307 655.546L88.6662 653.92ZM88.6012 655.912L88.599 653.913L86.599 653.915L86.6012 655.914L88.6012 655.912ZM88.5944 649.915L88.5898 645.917L86.5898 645.92L86.5944 649.917L88.5944 649.915ZM88.5853 641.92L88.5807 637.922L86.5807 637.924L86.5853 641.922L88.5853 641.92ZM88.5762 633.924L88.5716 629.926L86.5716 629.929L86.5762 633.926L88.5762 633.924ZM88.567 625.929L88.5625 621.931L86.5625 621.933L86.567 625.931L88.567 625.929ZM88.5579 617.933L88.5534 613.936L86.5534 613.938L86.5579 617.936L88.5579 617.933ZM88.5488 609.938L88.5443 605.94L86.5443 605.942L86.5488 609.94L88.5488 609.938ZM88.5397 601.942L88.5351 597.945L86.5351 597.947L86.5397 601.945L88.5397 601.942ZM88.5306 593.947L88.526 589.949L86.526 589.952L86.5306 593.949L88.5306 593.947ZM88.5215 585.952L88.5169 581.954L86.5169 581.956L86.5215 585.954L88.5215 585.952ZM88.5123 577.956L88.5078 573.958L86.5078 573.961L86.5124 577.958L88.5123 577.956ZM88.5032 569.961L88.4987 565.963L86.4987 565.965L86.5032 569.963L88.5032 569.961ZM88.4941 561.965L88.4896 557.968L86.4896 557.97L86.4941 561.968L88.4941 561.965ZM88.485 553.97L88.4804 549.972L86.4804 549.974L86.485 553.972L88.485 553.97ZM88.4759 545.974L88.4713 541.977L86.4713 541.979L86.4759 545.977L88.4759 545.974ZM88.4668 537.979L88.4622 533.981L86.4622 533.984L86.4668 537.981L88.4668 537.979ZM88.4576 529.984L88.4531 525.986L86.4531 525.988L86.4576 529.986L88.4576 529.984ZM88.4485 521.988L88.444 517.99L86.444 517.993L86.4485 521.99L88.4485 521.988ZM88.4394 513.993L88.4349 509.995L86.4349 509.997L86.4394 513.995L88.4394 513.993ZM88.4303 505.997L88.4257 501.999L86.4257 502.002L86.4303 505.999L88.4303 505.997ZM88.4212 498.002L88.4166 494.004L86.4166 494.006L86.4212 498.004L88.4212 498.002ZM88.4121 490.006L88.4075 486.009L86.4075 486.011L86.4121 490.009L88.4121 490.006ZM88.4029 482.011L88.3984 478.013L86.3984 478.015L86.4029 482.013L88.4029 482.011ZM88.3938 474.015L88.3893 470.018L86.3893 470.02L86.3938 474.018L88.3938 474.015ZM88.3847 466.02L88.3802 462.022L86.3802 462.025L86.3847 466.022L88.3847 466.02ZM88.3756 458.025L88.371 454.027L86.371 454.029L86.3756 458.027L88.3756 458.025ZM88.3665 450.029L88.3619 446.031L86.3619 446.034L86.3665 450.031L88.3665 450.029ZM88.3574 442.034L88.3528 438.036L86.3528 438.038L86.3574 442.036L88.3574 442.034ZM88.3483 434.038L88.3437 430.04L86.3437 430.043L86.3483 434.04L88.3483 434.038ZM88.3391 426.043L88.3346 422.045L86.3346 422.047L86.3391 426.045L88.3391 426.043ZM88.33 418.047L88.3255 414.05L86.3255 414.052L86.33 418.05L88.33 418.047ZM88.3209 410.052L88.3163 406.054L86.3163 406.056L86.3209 410.054L88.3209 410.052ZM88.3118 402.056L88.3072 398.059L86.3072 398.061L86.3118 402.059L88.3118 402.056ZM88.3027 394.061L88.2981 390.063L86.2981 390.066L86.3027 394.063L88.3027 394.061ZM88.2935 386.066L88.289 382.068L86.289 382.07L86.2935 386.068L88.2935 386.066ZM88.2844 378.07L88.2799 374.072L86.2799 374.075L86.2844 378.072L88.2844 378.07ZM88.2753 370.075L88.2708 366.077L86.2708 366.079L86.2753 370.077L88.2753 370.075ZM88.2662 362.079L88.2616 358.082L86.2616 358.084L86.2662 362.082L88.2662 362.079ZM88.2571 354.084L88.2525 350.086L86.2525 350.088L86.2571 354.086L88.2571 354.084ZM88.248 346.088L88.2434 342.091L86.2434 342.093L86.248 346.091L88.248 346.088ZM88.2388 338.093L88.2343 334.095L86.2343 334.098L86.2389 338.095L88.2388 338.093ZM88.2297 330.098L88.2252 326.1L86.2252 326.102L86.2297 330.1L88.2297 330.098ZM88.2206 322.102L88.2161 318.104L86.2161 318.107L86.2206 322.104L88.2206 322.102ZM88.2115 314.107L88.2069 310.109L86.2069 310.111L86.2115 314.109L88.2115 314.107ZM88.2024 306.111L88.1978 302.114L86.1978 302.116L86.2024 306.114L88.2024 306.111ZM88.1933 298.116L88.1887 294.118L86.1887 294.12L86.1933 298.118L88.1933 298.116ZM88.1842 290.121L88.1796 286.123L86.1796 286.125L86.1842 290.123L88.1842 290.121ZM88.175 282.125L88.1705 278.127L86.1705 278.13L86.175 282.127L88.175 282.125ZM88.1659 274.13L88.1614 270.132L86.1614 270.134L86.1659 274.132L88.1659 274.13ZM88.1568 266.134L88.1522 262.137L86.1522 262.139L86.1568 266.137L88.1568 266.134ZM88.1477 258.139L88.1431 254.141L86.1431 254.143L86.1477 258.141L88.1477 258.139ZM88.1386 250.143L88.134 246.146L86.134 246.148L86.1386 250.146L88.1386 250.143ZM88.1294 242.148L88.1249 238.15L86.1249 238.153L86.1294 242.15L88.1294 242.148ZM88.1203 234.153L88.1158 230.155L86.1158 230.157L86.1203 234.155L88.1203 234.153ZM88.1112 226.157L88.1067 222.159L86.1067 222.162L86.1112 226.159L88.1112 226.157ZM88.1021 218.162L88.0975 214.164L86.0975 214.166L86.1021 218.164L88.1021 218.162ZM88.093 210.166L88.0884 206.169L86.0884 206.171L86.093 210.169L88.093 210.166ZM88.0839 202.171L88.0793 198.173L86.0793 198.175L86.0839 202.173L88.0839 202.171ZM88.0748 194.176L88.0702 190.178L86.0702 190.18L86.0748 194.178L88.0748 194.176ZM88.0656 186.18L88.0634 184.181L86.0634 184.183L86.0656 186.182L88.0656 186.18Z" fill="#FF7B01" fill-opacity="0.11" mask="url(#path-4-inside-1_292_2)"/>
</g>
<defs>
<linearGradient id="paint0_linear_292_2" x1="335" y1="0" x2="243.133" y2="205.575" gradientUnits="userSpaceOnUse">
<stop stop-color="#FFDAA2"/>
<stop offset="0.463542" stop-color="#FFEFD7"/>
<stop offset="1" stop-color="#FFF3E0"/>
</linearGradient>
<linearGradient id="paint1_linear_292_2" x1="167" y1="115" x2="167" y2="237.787" gradientUnits="userSpaceOnUse">
<stop stop-color="white"/>
<stop offset="1" stop-color="white" stop-opacity="0"/>
</linearGradient>
<clipPath id="clip0_292_2">
<rect width="174" height="407" fill="white" transform="translate(40 37)"/>
</clipPath>
</defs>
</svg>
