<svg width="2127" height="141" viewBox="0 0 2127 141" fill="none" xmlns="http://www.w3.org/2000/svg">
<g clip-path="url(#clip0_19_10239)">
<g opacity="0.1" filter="url(#filter0_f_19_10239)">
<path fill-rule="evenodd" clip-rule="evenodd" d="M1625.15 65.7535C1618.81 64.1673 1612.35 67.9538 1610.65 74.2898L1611.39 71.5305C1609.19 79.4486 1601.01 84.1303 1593.05 81.9985L1497.6 56.421C1491.2 54.7057 1487.4 48.1256 1489.11 41.7241L1492.22 30.1348L1054.27 -87.2119L1114.06 -310.341C1115.49 -315.675 1120.97 -318.841 1126.31 -317.412L1932.26 -101.457C1937.6 -100.027 1940.76 -94.544 1939.33 -89.2093L1882.14 124.26C1880.71 129.595 1875.22 132.761 1869.89 131.331L1625.15 65.7535Z" fill="url(#paint0_linear_19_10239)"/>
</g>
<g opacity="0.02" filter="url(#filter1_f_19_10239)">
<path fill-rule="evenodd" clip-rule="evenodd" d="M1675.15 -74.2465C1668.81 -75.8327 1662.35 -72.0462 1660.65 -65.7102L1661.39 -68.4695C1659.19 -60.5514 1651.01 -55.8697 1643.05 -58.0015L1547.6 -83.579C1541.2 -85.2943 1537.4 -91.8744 1539.11 -98.2759L1542.22 -109.865L1104.27 -227.212L1164.06 -450.341C1165.49 -455.675 1170.97 -458.841 1176.31 -457.412L1982.26 -241.457C1987.6 -240.027 1990.76 -234.544 1989.33 -229.209L1932.14 -15.7397C1930.71 -10.4051 1925.22 -7.23924 1919.89 -8.66866L1675.15 -74.2465Z" fill="url(#paint1_linear_19_10239)"/>
</g>
<g clip-path="url(#clip1_19_10239)">
<g clip-path="url(#clip2_19_10239)">
<rect width="867.365" height="675.805" transform="translate(-29 -58.4604)" fill="url(#paint2_linear_19_10239)"/>
<g filter="url(#filter2_d_19_10239)">
<path d="M497.685 123.051L496.618 1061.2L339.849 948.577V318.011V317.48L339.315 316.948L249.199 252.67L246.533 250.545V253.732L246 995.856V996.387L247.066 996.918L587.267 1240.75L589.934 1242.34V1239.16L591 75.7716V75.2402L590.467 74.709L249.733 -167.53L247.066 -169.655V-166.468V-55.9725V-54.9102L247.6 -54.3789L337.716 8.83691V8.30579L497.685 123.051Z" fill="url(#paint3_linear_19_10239)"/>
<path d="M74.6847 1184.64L73.6182 246.493L-83.1514 359.113L-83.1514 989.679V990.21L-83.6847 990.741L-173.801 1055.02L-176.467 1057.14V1053.96L-177 311.834V311.303L-175.934 310.771L164.267 66.9384L166.934 65.3447V68.5321L168 1231.92V1232.45L167.467 1232.98L-173.267 1475.22L-175.934 1477.34V1474.16V1363.66V1362.6L-175.4 1362.07L-85.2843 1298.85V1299.38L74.6847 1184.64Z" fill="url(#paint4_linear_19_10239)"/>
</g>
</g>
<g clip-path="url(#clip3_19_10239)">
<g filter="url(#filter3_d_19_10239)">
<path d="M1825.68 194.051L1824.62 1132.2L1667.85 1019.58V389.011V388.48L1667.32 387.948L1577.2 323.67L1574.53 321.545V324.732L1574 1066.86V1067.39L1575.07 1067.92L1915.27 1311.75L1917.93 1313.34V1310.16L1919 146.772V146.24L1918.47 145.709L1577.73 -96.5303L1575.07 -98.6553V-95.4678V15.0275V16.0898L1575.6 16.6211L1665.72 79.8369V79.3058L1825.68 194.051Z" fill="url(#paint5_linear_19_10239)"/>
<path d="M1304.56 77.759L1304.04 534.208L1227.7 479.414V172.616V172.357L1227.44 172.099L1183.56 140.824L1182.26 139.791V141.341L1182 502.417V502.675L1182.52 502.934L1348.18 621.569L1349.48 622.345V620.794L1350 54.7557V54.4971L1349.74 54.2387L1183.82 -63.6213L1182.52 -64.6553V-63.1044V-9.34369V-8.82672L1182.78 -8.5683L1226.66 22.189V21.9306L1304.56 77.759Z" fill="url(#paint6_linear_19_10239)" fill-opacity="0.8"/>
<path d="M1380.56 43.759L1380.04 500.208L1303.7 445.414V138.616V138.357L1303.44 138.099L1259.56 106.824L1258.26 105.791V107.341L1258 468.417V468.675L1258.52 468.934L1424.18 587.569L1425.48 588.345V586.794L1426 20.7557V20.4971L1425.74 20.2387L1259.82 -97.6213L1258.52 -98.6553V-97.1044V-43.3437V-42.8267L1258.78 -42.5683L1302.66 -11.811V-12.0694L1380.56 43.759Z" fill="url(#paint7_linear_19_10239)" fill-opacity="0.8"/>
</g>
</g>
<rect width="2127" height="172" transform="matrix(1 0 0 -1 4 141)" fill="url(#paint8_linear_19_10239)"/>
</g>
</g>
<defs>
<filter id="filter0_f_19_10239" x="800.273" y="-571.755" width="1393.4" height="957.429" filterUnits="userSpaceOnUse" color-interpolation-filters="sRGB">
<feFlood flood-opacity="0" result="BackgroundImageFix"/>
<feBlend mode="normal" in="SourceGraphic" in2="BackgroundImageFix" result="shape"/>
<feGaussianBlur stdDeviation="127" result="effect1_foregroundBlur_19_10239"/>
</filter>
<filter id="filter1_f_19_10239" x="850.273" y="-711.755" width="1393.4" height="957.429" filterUnits="userSpaceOnUse" color-interpolation-filters="sRGB">
<feFlood flood-opacity="0" result="BackgroundImageFix"/>
<feBlend mode="normal" in="SourceGraphic" in2="BackgroundImageFix" result="shape"/>
<feGaussianBlur stdDeviation="127" result="effect1_foregroundBlur_19_10239"/>
</filter>
<filter id="filter2_d_19_10239" x="-232" y="-199.655" width="878" height="1757" filterUnits="userSpaceOnUse" color-interpolation-filters="sRGB">
<feFlood flood-opacity="0" result="BackgroundImageFix"/>
<feColorMatrix in="SourceAlpha" type="matrix" values="0 0 0 0 0 0 0 0 0 0 0 0 0 0 0 0 0 0 127 0" result="hardAlpha"/>
<feOffset dy="25"/>
<feGaussianBlur stdDeviation="27.5"/>
<feComposite in2="hardAlpha" operator="out"/>
<feColorMatrix type="matrix" values="0 0 0 0 1 0 0 0 0 0.482039 0 0 0 0 0.00392157 0 0 0 0.04 0"/>
<feBlend mode="normal" in2="BackgroundImageFix" result="effect1_dropShadow_19_10239"/>
<feBlend mode="normal" in="SourceGraphic" in2="effect1_dropShadow_19_10239" result="shape"/>
</filter>
<filter id="filter3_d_19_10239" x="1127" y="-128.655" width="847" height="1522" filterUnits="userSpaceOnUse" color-interpolation-filters="sRGB">
<feFlood flood-opacity="0" result="BackgroundImageFix"/>
<feColorMatrix in="SourceAlpha" type="matrix" values="0 0 0 0 0 0 0 0 0 0 0 0 0 0 0 0 0 0 127 0" result="hardAlpha"/>
<feOffset dy="25"/>
<feGaussianBlur stdDeviation="27.5"/>
<feComposite in2="hardAlpha" operator="out"/>
<feColorMatrix type="matrix" values="0 0 0 0 1 0 0 0 0 0.482039 0 0 0 0 0.00392157 0 0 0 0.04 0"/>
<feBlend mode="normal" in2="BackgroundImageFix" result="effect1_dropShadow_19_10239"/>
<feBlend mode="normal" in="SourceGraphic" in2="effect1_dropShadow_19_10239" result="shape"/>
</filter>
<linearGradient id="paint0_linear_19_10239" x1="1314.75" y1="77.8253" x2="1938.11" y2="-111.439" gradientUnits="userSpaceOnUse">
<stop offset="0.0001" stop-color="#FFC107"/>
<stop offset="1" stop-color="#FF9737"/>
</linearGradient>
<linearGradient id="paint1_linear_19_10239" x1="1364.75" y1="-62.1747" x2="1988.11" y2="-251.439" gradientUnits="userSpaceOnUse">
<stop offset="0.0001" stop-color="#FFC107"/>
<stop offset="1" stop-color="#FF9737"/>
</linearGradient>
<linearGradient id="paint2_linear_19_10239" x1="433.682" y1="0" x2="433.682" y2="675.805" gradientUnits="userSpaceOnUse">
<stop stop-color="white"/>
<stop offset="1" stop-color="white" stop-opacity="0"/>
</linearGradient>
<linearGradient id="paint3_linear_19_10239" x1="418.5" y1="1242.34" x2="-321.343" y2="333.288" gradientUnits="userSpaceOnUse">
<stop stop-color="white"/>
<stop offset="1" stop-color="white" stop-opacity="0"/>
</linearGradient>
<linearGradient id="paint4_linear_19_10239" x1="-4.49999" y1="65.3447" x2="-744.343" y2="974.401" gradientUnits="userSpaceOnUse">
<stop stop-color="white"/>
<stop offset="1" stop-color="white" stop-opacity="0"/>
</linearGradient>
<linearGradient id="paint5_linear_19_10239" x1="1746.5" y1="1313.34" x2="1006.66" y2="404.288" gradientUnits="userSpaceOnUse">
<stop stop-color="white"/>
<stop offset="1" stop-color="white" stop-opacity="0"/>
</linearGradient>
<linearGradient id="paint6_linear_19_10239" x1="1266" y1="622.345" x2="906.096" y2="179.75" gradientUnits="userSpaceOnUse">
<stop stop-color="white"/>
<stop offset="1" stop-color="white" stop-opacity="0"/>
</linearGradient>
<linearGradient id="paint7_linear_19_10239" x1="1342" y1="588.345" x2="982.096" y2="145.75" gradientUnits="userSpaceOnUse">
<stop stop-color="white"/>
<stop offset="1" stop-color="white" stop-opacity="0"/>
</linearGradient>
<linearGradient id="paint8_linear_19_10239" x1="1063.5" y1="0" x2="1063.5" y2="172" gradientUnits="userSpaceOnUse">
<stop stop-color="white"/>
<stop offset="1" stop-color="white" stop-opacity="0"/>
</linearGradient>
<clipPath id="clip0_19_10239">
<rect width="2156" height="141" fill="white" transform="translate(-29)"/>
</clipPath>
<clipPath id="clip1_19_10239">
<rect width="2160" height="676" fill="white" transform="translate(-29 -88)"/>
</clipPath>
<clipPath id="clip2_19_10239">
<rect width="867.365" height="675.805" fill="white" transform="translate(-29 -58.4604)"/>
</clipPath>
<clipPath id="clip3_19_10239">
<rect width="817" height="703.84" fill="white" transform="translate(1159 -87.6553)"/>
</clipPath>
</defs>
</svg>
