<svg width="45" height="49" viewBox="0 0 45 49" fill="none" xmlns="http://www.w3.org/2000/svg">
<rect width="45" height="45" rx="22.5" fill="#FFE6C0"/>
<g filter="url(#filter0_d_1_14)">
<rect x="4" y="4" width="37" height="37" rx="18.5" fill="url(#paint0_linear_1_14)"/>
</g>
<path d="M24.2086 18.075C24.2086 18.9083 24.2003 19.65 24.1836 20.3C24.1669 20.9333 24.1419 21.5333 24.1086 22.1C24.0753 22.65 24.0336 23.1917 23.9836 23.725C23.9503 24.2417 23.9086 24.7833 23.8586 25.35H22.6086C22.5586 24.7833 22.5003 24.2417 22.4336 23.725C22.3836 23.2083 22.3419 22.6667 22.3086 22.1C22.2753 21.5333 22.2419 20.9333 22.2086 20.3C22.1919 19.65 22.1836 18.9083 22.1836 18.075V14.925H24.2086V18.075ZM23.2336 30C22.3669 30 21.9336 29.5583 21.9336 28.675C21.9336 28.1917 22.0419 27.85 22.2586 27.65C22.4919 27.4333 22.8169 27.325 23.2336 27.325C23.6503 27.325 23.9669 27.4333 24.1836 27.65C24.4003 27.85 24.5086 28.1917 24.5086 28.675C24.5086 29.5583 24.0836 30 23.2336 30Z" fill="url(#paint1_linear_1_14)"/>
<defs>
<filter id="filter0_d_1_14" x="0" y="4" width="45" height="45" filterUnits="userSpaceOnUse" color-interpolation-filters="sRGB">
<feFlood flood-opacity="0" result="BackgroundImageFix"/>
<feColorMatrix in="SourceAlpha" type="matrix" values="0 0 0 0 0 0 0 0 0 0 0 0 0 0 0 0 0 0 127 0" result="hardAlpha"/>
<feOffset dy="4"/>
<feGaussianBlur stdDeviation="2"/>
<feComposite in2="hardAlpha" operator="out"/>
<feColorMatrix type="matrix" values="0 0 0 0 1 0 0 0 0 0.756863 0 0 0 0 0.027451 0 0 0 0.26 0"/>
<feBlend mode="normal" in2="BackgroundImageFix" result="effect1_dropShadow_1_14"/>
<feBlend mode="normal" in="SourceGraphic" in2="effect1_dropShadow_1_14" result="shape"/>
</filter>
<linearGradient id="paint0_linear_1_14" x1="22.5" y1="4" x2="22.5" y2="41" gradientUnits="userSpaceOnUse">
<stop stop-color="white"/>
<stop offset="1" stop-color="white"/>
</linearGradient>
<linearGradient id="paint1_linear_1_14" x1="23" y1="12" x2="23" y2="40" gradientUnits="userSpaceOnUse">
<stop stop-color="#FFE6C0"/>
<stop offset="1" stop-color="#FFC107"/>
</linearGradient>
</defs>
</svg>
