<svg width="22" height="22" viewBox="0 0 22 22" fill="none" xmlns="http://www.w3.org/2000/svg">
<path d="M21.9944 3.56655C21.9924 3.08583 21.8933 2.61055 21.703 2.16963C21.3319 1.30113 20.6353 0.615107 19.7644 0.260627C19.3461 0.088966 18.8987 0.000461001 18.447 0L3.50268 0C3.02681 0.00713409 2.55756 0.113405 2.12453 0.312113C1.27258 0.688365 0.602688 1.38792 0.26056 2.25863C0.0904537 2.68037 0.00201386 3.13095 9.14403e-07 3.58611V18.3596C-0.000349228 18.8626 0.0998615 19.3604 0.294667 19.8236C0.490205 20.2887 0.783376 20.7057 1.15408 21.0461L1.1517 21.0489C1.47624 21.3505 1.85356 21.589 2.26453 21.7521C2.67432 21.9151 3.11085 21.9991 3.55146 22H18.4485C19.37 21.9991 20.2546 21.6355 20.9133 20.987C21.2556 20.6504 21.528 20.2487 21.7145 19.8051C21.9011 19.3616 21.9981 18.8851 22 18.4035V3.56655H21.9944ZM3.55304 20.5612C3.02031 20.5612 2.50707 20.3594 2.11541 19.996C1.63355 19.5514 1.42772 18.9551 1.42772 18.3596V3.58571C1.42915 3.24402 1.51068 2.90749 1.66568 2.60347C1.68921 2.55824 1.7138 2.51394 1.73944 2.47056C1.75967 2.43744 1.7791 2.40471 1.8025 2.37278C1.8136 2.35562 1.82511 2.33885 1.8374 2.32209L1.8604 2.29096C1.88777 2.25344 1.91711 2.21672 1.94765 2.1808C1.96986 2.15486 1.99286 2.12932 2.01626 2.10417C2.02895 2.0906 2.04204 2.07703 2.05592 2.06426C2.46242 1.65516 3.03431 1.43684 3.50268 1.43684H6.51676V5.02894L10.2447 7.3175V5.64119L7.94051 4.22471V1.43684L15.3214 5.96129L5.09419 12.2307V18.1664L9.00337 20.5612H3.55304ZM15.5066 10.2822L8.87646 14.3448L6.62701 12.9667L15.4999 7.52744V10.2814L15.5066 10.2822ZM20.5731 18.4027C20.5748 18.9698 20.3544 19.5147 19.9595 19.9194L19.9199 19.9593C19.5261 20.3463 18.9974 20.5629 18.447 20.5628H15.4967V15.0748L14.075 15.9465V21.9996L14.0516 21.9852L13.9968 21.9517L12.322 20.9208L12.3141 20.916L6.51596 17.3638V14.5755L12.6512 18.3313V16.655L10.2439 15.1826L16.9233 11.0908V5.26841L16.7381 5.15506L16.6897 5.12512L16.0698 4.74516L10.6738 1.43684H18.447C18.6604 1.43798 18.8724 1.47134 19.0759 1.53582C19.1259 1.55139 19.1747 1.56895 19.2227 1.58811C19.2544 1.60088 19.2861 1.61445 19.3175 1.62802L19.3639 1.64997C19.3948 1.66514 19.4253 1.6807 19.4551 1.69707L19.4999 1.72221C19.6617 1.81634 19.8108 1.93118 19.9433 2.06386C19.9671 2.08781 19.9905 2.11255 20.0135 2.1377C20.0365 2.16284 20.0583 2.18799 20.0805 2.21433C20.1019 2.24027 20.1229 2.26701 20.1436 2.29415L20.1737 2.33406C20.4294 2.69286 20.5692 3.12223 20.5739 3.56376L20.5731 18.4027Z" fill="#544C45"/>
<path d="M2.01541 2.10339C1.99201 2.12853 1.96901 2.15408 1.9472 2.18002C1.96941 2.15408 1.99241 2.12853 2.01581 2.10339C2.0285 2.08982 2.04159 2.07625 2.05547 2.06348L2.01541 2.10339ZM1.66602 2.60309C1.68955 2.55786 1.71414 2.51355 1.73978 2.47018C1.71308 2.51382 1.68849 2.55812 1.66602 2.60309Z" fill="#544C45"/>
</svg>
