<svg width="57" height="49" viewBox="0 0 57 49" fill="none" xmlns="http://www.w3.org/2000/svg">
<path fill-rule="evenodd" clip-rule="evenodd" d="M32.6285 48.8967C33.028 49.0344 33.5607 49.0344 33.9603 48.8967C33.6939 48.0703 33.2944 47.3816 32.4953 46.8306C32.0958 46.5552 31.6963 46.4174 31.2967 46.2797C30.8972 46.1419 30.4977 46.142 30.0981 46.142C30.2313 46.9684 30.6308 47.7948 31.2967 48.3457C31.6963 48.6212 32.229 48.8967 32.6285 48.8967ZM30.0981 44.7646C30.4977 44.7646 30.8972 44.6268 31.1636 44.3514C31.5631 44.0759 31.8294 43.8004 32.0958 43.5249C32.4953 42.8363 32.6285 42.0098 32.6285 41.1834C32.3621 41.3211 31.9626 41.4589 31.6963 41.5966C31.4299 41.8721 31.1636 42.1476 30.8972 42.423C30.3645 43.1117 30.0981 43.9382 30.0981 44.7646ZM36.6238 47.2438C37.4229 47.6571 38.4883 47.6571 39.2874 47.3816C38.8878 46.6929 38.3551 46.0042 37.4229 45.7287C37.0234 45.591 36.6238 45.4533 36.2243 45.4533C35.8248 45.4533 35.4252 45.4533 35.0257 45.4533C35.2921 46.142 35.8248 46.8306 36.6238 47.2438ZM34.6262 43.9382C35.0257 43.8004 35.2921 43.6627 35.6916 43.3872C35.9579 43.1117 36.2243 42.8363 36.3575 42.423C36.6238 41.5966 36.6238 40.7702 36.3575 39.9438C35.6916 40.2193 35.2921 40.7702 34.8925 41.5966C34.493 42.2853 34.493 43.1117 34.6262 43.9382ZM41.5514 45.1778C42.4836 45.4533 43.4159 45.1778 44.215 44.7646C43.6822 44.0759 43.0164 43.6627 42.0841 43.5249C41.6846 43.3872 41.1519 43.3872 40.7523 43.3872C40.3528 43.3872 39.9533 43.5249 39.5537 43.6627C39.9533 44.3514 40.6192 44.9023 41.5514 45.1778ZM40.3528 40.357C40.486 39.5306 40.3528 38.7041 39.9533 38.0155C39.4206 38.4287 39.021 39.1174 38.8879 39.9438C38.7547 40.7702 38.7547 41.5966 39.021 42.423C39.2874 42.1476 39.6869 42.0098 39.9533 41.5966C40.0864 41.1834 40.2196 40.7702 40.3528 40.357ZM48.4766 41.1834C47.8107 40.6325 47.0117 40.357 46.2126 40.357C45.8131 40.357 45.2804 40.357 44.8808 40.4947C44.4813 40.6325 44.0818 40.7702 43.8154 41.0457C44.3481 41.7344 45.014 42.1476 45.9463 42.1476C46.8785 42.1476 47.6776 41.7344 48.4766 41.1834ZM43.0164 35.3985C42.6168 35.9494 42.3505 36.6381 42.2173 37.4645C42.2173 38.2909 42.3505 39.1174 42.8832 39.806C43.1495 39.5306 43.4159 39.2551 43.5491 38.8419C43.6822 38.4287 43.8154 38.0155 43.8154 37.6022C43.8154 36.7758 43.5491 35.9494 43.0164 35.3985ZM51.5397 37.3268C51.6729 37.189 51.8061 37.0513 52.0724 36.7758C51.4065 36.3626 50.4743 36.2249 49.6752 36.3626C49.2757 36.5003 48.8762 36.6381 48.4766 36.7758C48.0771 36.9136 47.8107 37.189 47.4112 37.4645C48.0771 38.0155 48.8762 38.2909 49.8084 38.1532C50.2079 38.1532 50.7407 37.8777 51.1402 37.6022C51.1402 37.6022 51.4065 37.4645 51.5397 37.3268ZM46.7453 35.5362C46.8785 35.123 46.8785 34.7098 46.7453 34.2966C46.6121 33.4701 46.0794 32.7814 45.5467 32.2305C45.4136 32.3682 45.4136 32.506 45.2804 32.6437C45.2804 32.7814 45.1472 33.0569 45.1472 33.1947C45.014 33.6079 45.1472 34.0211 45.1472 34.4343C45.2804 35.2607 45.6799 36.0871 46.2126 36.6381C46.479 36.2249 46.7453 35.9494 46.7453 35.5362ZM54.3364 32.506C54.4696 32.3682 54.6028 32.0928 54.736 31.955C53.9369 31.6795 53.1378 31.6795 52.3388 32.0928C51.9392 32.2305 51.5397 32.506 51.2734 32.7814C51.007 33.0569 50.6075 33.3324 50.4743 33.7456C51.1402 34.1588 52.0724 34.2966 52.8715 33.8833C53.271 33.7456 53.6706 33.4701 54.0701 33.1947C54.0701 32.7814 54.2033 32.6437 54.3364 32.506ZM49.2757 31.5418C49.2757 31.1286 49.2757 30.7154 49.1425 30.3022C48.8762 29.4758 48.2103 28.9248 47.5444 28.5116C47.5444 28.6493 47.4112 28.7871 47.4112 29.0625C47.4112 29.2003 47.4112 29.4758 47.4112 29.6135C47.4112 30.0267 47.5444 30.3022 47.6776 30.7154C47.9439 31.5418 48.4766 32.2305 49.1425 32.6437C49.1425 32.3682 49.2757 31.955 49.2757 31.5418ZM54.736 28.6493C55.535 28.0984 56.0678 27.4097 56.3341 26.4455C55.535 26.3078 54.736 26.5833 53.9369 26.9965C53.5374 27.272 53.271 27.5474 53.0047 27.8229C52.7383 28.0984 52.472 28.5116 52.3388 28.9248C53.1378 29.2003 53.9369 29.0625 54.736 28.6493ZM48.743 24.6549C48.6098 25.3436 48.743 26.0323 49.1425 26.8587C49.5421 27.5474 50.2079 28.0984 50.8738 28.5116C51.007 28.0984 51.007 27.6852 51.007 27.272C51.007 26.8587 50.8738 26.4455 50.6075 26.1701C50.2079 25.3436 49.5421 24.9304 48.743 24.6549ZM56.8668 21.487C56.8668 21.2115 57 21.0738 57 20.7983C56.6005 20.7983 56.2009 20.936 55.8014 21.0738C55.4019 21.2115 55.1355 21.487 54.736 21.7625C54.4696 22.0379 54.2033 22.4512 53.9369 22.8644C53.6706 23.2776 53.5374 23.6908 53.5374 24.104C54.3364 24.2417 55.1355 23.9663 55.8014 23.2776C56.2009 23.0021 56.4673 22.5889 56.6005 22.1757C56.7336 21.9002 56.8668 21.7625 56.8668 21.487ZM50.0748 22.5889C50.6075 23.1398 51.4065 23.6908 52.0724 23.8285C52.0724 23.4153 52.0724 23.0021 51.9393 22.5889C51.8061 22.1757 51.5397 21.9002 51.2734 21.487C51.007 21.2115 50.6075 20.936 50.3411 20.7983C49.9416 20.6606 49.5421 20.5228 49.1425 20.5228C49.1425 20.6606 49.1425 20.936 49.2757 21.0738C49.2757 21.2115 49.4089 21.487 49.4089 21.6247C49.6752 21.9002 49.8084 22.3134 50.0748 22.5889ZM56.6005 15.1511C56.2009 15.2888 55.8014 15.4266 55.535 15.702C55.1355 15.9775 54.8692 16.253 54.6028 16.6662C54.4696 16.8039 54.3364 17.0794 54.3364 17.2171C54.2033 17.3549 54.2033 17.6304 54.0701 17.7681C53.9369 18.1813 53.9369 18.5945 53.8037 19.0077C54.2033 19.0077 54.6028 18.87 55.0023 18.5945C55.4019 18.4568 55.6682 18.0436 55.9346 17.7681C56.2009 17.3549 56.4673 16.9417 56.4673 16.5285C56.4673 16.253 56.6005 16.1152 56.6005 15.8398C56.7336 15.5643 56.7336 15.2888 56.6005 15.1511ZM51.2734 18.87C51.6729 19.0077 52.0724 19.1455 52.472 19.1455C52.472 18.7323 52.3388 18.319 52.0724 18.0436C51.9392 17.9058 51.8061 17.7681 51.6729 17.4926C51.5397 17.3549 51.4065 17.2171 51.2734 17.0794C50.8738 16.8039 50.6075 16.6662 50.2079 16.5285C49.8084 16.3907 49.4089 16.3907 49.0093 16.5285C49.0093 16.6662 49.1425 16.8039 49.1425 17.0794C49.2757 17.2171 49.2757 17.3549 49.4089 17.4926C49.6752 17.7681 49.8084 18.0436 50.2079 18.319C50.4743 18.4568 50.8738 18.7323 51.2734 18.87ZM53.271 12.1209C53.271 12.3963 53.1379 12.5341 53.1379 12.8096C53.1379 12.9473 53.1379 13.2228 53.1379 13.3605C53.1379 13.636 53.1379 13.7737 53.1379 14.0492C53.5374 13.9115 53.9369 13.7737 54.2033 13.4982C54.4696 13.2228 54.8692 12.9473 55.0023 12.3963C55.1355 11.9831 55.2687 11.5699 55.4019 11.019C55.4019 10.6058 55.4019 10.0548 55.2687 9.6416C54.6028 10.0548 53.9369 10.6058 53.5374 11.4322C53.5374 11.5699 53.4042 11.7077 53.4042 11.7077C53.4042 11.8454 53.271 11.9831 53.271 12.1209ZM50.6075 12.6718C50.4743 12.6718 50.4743 12.5341 50.3411 12.5341C49.5421 12.1209 48.743 12.1209 47.9439 12.3963C48.0771 12.6718 48.2103 12.9473 48.4766 13.2228C48.743 13.4982 49.0093 13.7737 49.4089 13.9115C49.8084 14.0492 50.2079 14.1869 50.6075 14.3247C51.007 14.3247 51.4065 14.3247 51.8061 14.3247C51.8061 14.1869 51.6729 13.9115 51.5397 13.7737C51.4065 13.636 51.2734 13.4982 51.1402 13.2228C51.007 13.085 50.8738 12.9473 50.7407 12.8096L50.6075 12.6718ZM51.4065 6.61138C51.2734 7.02459 51.2734 7.57554 51.2734 7.98875C51.2734 8.26423 51.2734 8.40197 51.4065 8.67744C51.4065 8.95291 51.5397 9.09065 51.5397 9.22839C52.2056 8.81518 52.8715 8.12649 53.0047 7.30007C53.1378 6.88686 53.1379 6.33591 53.1379 5.9227C53.1379 5.50949 52.8715 4.95854 52.7383 4.54533C52.0724 4.95854 51.6729 5.78496 51.4065 6.61138ZM49.5421 8.95292C49.2757 8.67744 48.8762 8.5397 48.4766 8.40197C47.6776 8.26423 46.8785 8.40197 46.2126 8.81518C46.3458 9.09065 46.6121 9.36613 47.0117 9.50386C47.278 9.77934 47.6776 9.91707 48.0771 9.91707C48.8762 10.1925 49.6752 10.0548 50.4743 9.77934C50.3411 9.6416 50.2079 9.50386 50.2079 9.22839C49.8084 9.22839 49.6752 8.95292 49.5421 8.95292ZM48.4766 2.34153C48.4766 2.75474 48.4766 3.30569 48.6098 3.7189C48.743 4.13211 48.8762 4.54532 49.1425 4.95854C49.8084 4.40759 50.2079 3.7189 50.2079 2.75474C50.2079 1.79058 49.9416 0.826421 49.4089 0.137735C48.8762 0.550947 48.6098 1.37737 48.4766 2.34153ZM43.6822 5.50949C44.215 5.9227 44.8808 6.33591 45.6799 6.33591C46.479 6.33591 47.278 6.19817 47.9439 5.78496C47.6776 5.50949 47.4112 5.23401 47.0117 5.09627C46.6121 4.95854 46.2126 4.8208 45.8131 4.8208C45.1472 4.54533 44.3481 4.95854 43.6822 5.50949ZM27.035 44.7646C27.035 43.9382 26.7687 43.1117 26.3692 42.423C26.1028 42.0098 25.8364 41.7344 25.5701 41.5966C25.3037 41.3212 24.9042 41.1834 24.6378 41.1834C24.5047 42.0098 24.6378 42.8363 25.1706 43.5249C25.4369 43.9382 25.7033 44.2136 26.1028 44.3514C26.236 44.4891 26.6355 44.6268 27.035 44.7646ZM26.9019 46.142C26.5023 46.142 26.1028 46.2797 25.7033 46.2797C25.3037 46.4174 24.9042 46.5552 24.5047 46.8306C23.8388 47.3816 23.3061 48.0703 23.0397 48.8967C23.4393 48.8967 23.972 48.8967 24.3715 48.8967C24.771 48.759 25.3037 48.6212 25.5701 48.3457C26.3692 47.7948 26.7687 46.9684 26.9019 46.142ZM22.3738 43.9382C22.507 43.1117 22.3738 42.2853 22.1075 41.4589C21.7079 40.6325 21.3084 40.2192 20.6425 39.806C20.3762 40.6325 20.3762 41.4589 20.6425 42.2853C20.7757 42.6985 21.0421 42.974 21.3084 43.2495C21.7079 43.6627 22.1075 43.8004 22.3738 43.9382ZM20.3762 47.2438C21.1752 46.8306 21.7079 46.1419 21.9743 45.3155C21.5748 45.1778 21.1752 45.1778 20.7757 45.3155C20.3762 45.3155 19.9766 45.4533 19.5771 45.591C18.778 46.0042 18.1121 46.5552 17.7126 47.2438C18.6449 47.6571 19.5771 47.6571 20.3762 47.2438ZM16.7804 40.357C16.9136 40.7702 17.0467 41.1834 17.3131 41.4589C17.5794 41.7344 17.8458 42.0098 18.2453 42.2853C18.5117 41.4589 18.6449 40.6325 18.3785 39.806C18.2453 38.9796 17.8458 38.4287 17.3131 37.8777C16.7804 38.7041 16.514 39.5306 16.7804 40.357ZM17.4463 43.6627C17.0467 43.5249 16.6472 43.3872 16.2477 43.3872C15.8481 43.3872 15.4486 43.3872 14.9159 43.5249C13.9836 43.6627 13.3178 44.2136 12.785 44.7646C13.5841 45.3155 14.5164 45.4533 15.4486 45.1778C16.3808 44.9023 17.0467 44.3514 17.4463 43.6627ZM13.1846 37.6022C13.1846 38.0155 13.3178 38.4287 13.4509 38.8419C13.5841 39.2551 13.8505 39.5306 14.1168 39.806C14.5164 39.1174 14.7827 38.2909 14.7827 37.4645C14.7827 36.6381 14.5164 35.9494 13.9836 35.3985C13.4509 35.9494 13.1846 36.7758 13.1846 37.6022ZM8.65654 41.1834C9.32243 41.8721 10.2547 42.1476 11.1869 42.1476C12.1192 42.1476 12.785 41.7344 13.3178 41.0457C12.9182 40.7702 12.6519 40.6325 12.2523 40.4947C11.8528 40.357 11.4533 40.357 10.9206 40.357C9.98832 40.357 9.18925 40.6325 8.65654 41.1834ZM11.8528 33.1947C11.8528 33.0569 11.7196 32.7814 11.7196 32.6437C11.7196 32.506 11.5864 32.3682 11.4533 32.2305C10.7874 32.7814 10.3879 33.4701 10.2547 34.2966C10.1215 34.7098 10.2547 35.123 10.2547 35.5362C10.3879 35.9494 10.521 36.2249 10.7874 36.6381C11.3201 36.0871 11.7196 35.2607 11.8528 34.4343C11.8528 34.0211 11.8528 33.6079 11.8528 33.1947ZM7.32477 38.2909C8.25701 38.4287 9.05607 38.1532 9.72196 37.6022C9.45561 37.3268 9.05607 37.0513 8.65654 36.9136C8.25701 36.6381 7.85748 36.5003 7.45794 36.5003C6.5257 36.3626 5.72664 36.5003 5.06075 36.9136C5.19393 37.0513 5.3271 37.3268 5.59346 37.4645C5.72664 37.6022 5.99299 37.74 6.12617 37.8777C6.39252 38.0155 6.92523 38.1532 7.32477 38.2909ZM7.7243 31.5418C7.7243 31.955 7.85748 32.3682 7.99065 32.6437C8.65654 32.2305 9.18925 31.5418 9.45561 30.7154C9.58879 30.3022 9.72196 29.889 9.72196 29.6135C9.72196 29.4758 9.72196 29.2003 9.72196 29.0625C9.72196 28.9248 9.72196 28.6493 9.58879 28.5116C8.9229 28.9248 8.25701 29.4758 7.99065 30.3022C7.7243 30.7154 7.7243 31.1286 7.7243 31.5418ZM3.19626 32.9192C3.59579 33.1947 3.86215 33.4701 4.39486 33.6079C5.3271 33.8833 6.12617 33.7456 6.79206 33.4701C6.5257 33.0569 6.25935 32.7814 5.99299 32.506C5.72664 32.2305 5.3271 31.955 4.92757 31.8173C4.1285 31.5418 3.19626 31.4041 2.53037 31.6795C2.66355 31.955 2.79673 32.0928 2.92991 32.2305C2.79673 32.6437 3.06308 32.7814 3.19626 32.9192ZM5.99299 27.272C5.99299 27.6852 5.99299 28.0984 6.12617 28.5116C6.79206 28.2361 7.45794 27.5474 7.85748 26.8587C8.25701 26.1701 8.39019 25.3436 8.25701 24.6549C7.45794 24.9304 6.79205 25.3436 6.39252 26.0323C6.12617 26.4455 5.99299 26.8587 5.99299 27.272ZM0.665888 26.4455C0.932243 27.4097 1.46495 28.2361 2.26402 28.6493C3.06308 29.0625 3.86215 29.2003 4.66121 28.9248C4.52804 28.5116 4.26168 28.0984 3.99533 27.8229C3.72897 27.5474 3.46262 27.1342 3.06308 26.9965C2.26402 26.4455 1.46495 26.3078 0.665888 26.4455ZM5.06075 22.5889C4.92757 23.0021 4.92757 23.4153 4.92757 23.8285C5.72664 23.6908 6.39252 23.2776 6.92523 22.5889C7.19159 22.3134 7.45794 21.9002 7.59112 21.6247C7.7243 21.487 7.7243 21.3493 7.7243 21.0738C7.7243 20.936 7.85748 20.6606 7.85748 20.5228C7.45794 20.5228 7.05841 20.6606 6.65888 20.7983C6.25935 20.936 5.99299 21.2115 5.72663 21.487C5.3271 21.9002 5.19393 22.3134 5.06075 22.5889ZM0.133178 21.487C0.133178 21.7625 0.266355 21.9002 0.399533 22.1757C0.532711 22.5889 0.799065 23.0021 1.1986 23.2776C1.86449 23.9663 2.66355 24.104 3.46262 24.104C3.32944 23.6908 3.19626 23.2776 3.06308 22.8644C2.79673 22.4512 2.66355 22.1757 2.26402 21.7625C1.99766 21.487 1.59813 21.2115 1.1986 21.0738C0.799065 20.936 0.399533 20.7983 0 20.7983C0 21.0738 5.06048e-07 21.2115 0.133178 21.487ZM4.66121 19.0077C5.06075 19.0077 5.46028 18.87 5.85981 18.7323C6.25935 18.5945 6.65888 18.4568 6.92523 18.1813C7.19159 17.9058 7.45794 17.6304 7.7243 17.3549C7.85748 17.2171 7.85748 17.0794 7.99065 16.9417C8.12383 16.8039 8.12383 16.6662 8.12383 16.3907C7.7243 16.3907 7.32477 16.3907 6.92523 16.3907C6.5257 16.5285 6.12617 16.6662 5.85981 16.9417C5.72663 17.0794 5.59346 17.2171 5.46028 17.3549C5.3271 17.4926 5.19393 17.6304 5.06075 17.9058C4.79439 18.319 4.66121 18.5945 4.66121 19.0077ZM0.399533 15.1511C0.399533 15.4266 0.399533 15.5643 0.399533 15.8398C0.399533 16.1152 0.399532 16.253 0.53271 16.5285C0.665887 16.9417 0.799066 17.3549 1.06542 17.7681C1.33178 18.1813 1.73131 18.4568 1.99766 18.5945C2.3972 18.7323 2.79673 18.87 3.19626 19.0077C3.19626 18.5945 3.06308 18.1813 2.92991 17.7681C2.92991 17.4926 2.79673 17.3549 2.66355 17.2171C2.53037 17.0794 2.3972 16.8039 2.3972 16.6662C2.13084 16.253 1.86449 15.9775 1.46495 15.702C1.1986 15.4266 0.799066 15.1511 0.399533 15.1511ZM5.85981 13.2228C5.72663 13.3605 5.59346 13.4982 5.46028 13.7737C5.3271 13.9115 5.3271 14.1869 5.19392 14.3247C5.59346 14.4624 5.99299 14.4624 6.39252 14.3247C6.79205 14.3247 7.19159 14.1869 7.59112 13.9115C7.99066 13.7737 8.25701 13.4982 8.52336 13.2228C8.78972 12.9473 8.9229 12.6718 9.05607 12.3963C8.25701 12.1209 7.45794 12.1209 6.65888 12.5341C6.5257 12.5341 6.5257 12.6718 6.39252 12.6718C6.25934 12.6718 6.25935 12.8096 6.12617 12.8096C6.12617 12.9473 5.99299 13.085 5.85981 13.2228ZM1.59813 11.019C1.59813 11.4322 1.73131 11.9831 1.99766 12.3963C2.13084 12.8096 2.53037 13.2228 2.79673 13.4982C3.06308 13.7737 3.46262 13.9115 3.86215 14.0492C3.86215 13.7737 3.86215 13.636 3.86215 13.3605C3.86215 13.2228 3.86215 12.9473 3.86215 12.8096C3.86215 12.5341 3.72897 12.3963 3.72897 12.1209C3.72897 11.9831 3.72897 11.8454 3.59579 11.8454C3.59579 11.7077 3.46262 11.5699 3.46262 11.5699C3.06308 10.7435 2.53037 10.0548 1.73131 9.77934C1.73131 10.0548 1.59813 10.468 1.59813 11.019ZM7.05841 9.36613C6.92523 9.50386 6.79206 9.6416 6.79206 9.91707C7.59112 10.1925 8.39019 10.1925 9.18925 10.0548C9.58878 9.91707 9.98832 9.77934 10.2547 9.6416C10.521 9.50386 10.7874 9.22839 11.0537 8.95292C10.3878 8.5397 9.58879 8.40197 8.78972 8.5397C8.39019 8.67744 7.99065 8.81518 7.7243 9.09065C7.32477 8.95291 7.19159 9.22839 7.05841 9.36613ZM3.86215 5.78496C3.86215 6.19817 3.86215 6.74912 3.99533 7.16233C4.26168 8.12649 4.79439 8.67744 5.46028 9.09065C5.59346 8.95291 5.59346 8.67744 5.59346 8.5397C5.59346 8.26423 5.72663 8.12649 5.72663 7.85102C5.72663 7.43781 5.72664 7.02459 5.59346 6.47365C5.46028 5.64722 4.92757 4.8208 4.26168 4.40759C3.99533 4.95854 3.86215 5.37175 3.86215 5.78496ZM9.98832 4.95854C9.58878 5.09627 9.32243 5.37175 9.05607 5.64722C9.72196 6.06043 10.521 6.33591 11.3201 6.19817C12.1192 6.19817 12.785 5.78496 13.3178 5.37175C12.6519 4.8208 11.986 4.54533 11.0537 4.54533C10.6542 4.68306 10.2547 4.68306 9.98832 4.95854ZM7.59112 0C7.05841 0.688686 6.65888 1.65285 6.79206 2.61701C6.92523 3.58117 7.32477 4.26985 7.85748 4.8208C8.12383 4.40759 8.25701 4.13211 8.39019 3.58116C8.52336 3.16795 8.52336 2.75474 8.52336 2.20379C8.52336 1.37737 8.12383 0.550949 7.59112 0Z" fill="#EAEAEA"/>
<path d="M38.0105 14.7635C38.0088 14.3437 37.9222 13.9287 37.756 13.5438C37.432 12.7855 36.8238 12.1865 36.0634 11.877C35.6982 11.7271 35.3076 11.6498 34.9131 11.6494H21.8649C21.4494 11.6556 21.0397 11.7484 20.6616 11.9219C19.9178 12.2504 19.3329 12.8612 19.0341 13.6215C18.8856 13.9897 18.8084 14.3831 18.8066 14.7805V27.6796C18.8063 28.1188 18.8938 28.5535 19.0639 28.9579C19.2347 29.3639 19.4906 29.7281 19.8143 30.0253L19.8122 30.0277C20.0956 30.2911 20.425 30.4993 20.7839 30.6417C21.1416 30.784 21.5228 30.8574 21.9075 30.8581H34.9145C35.7191 30.8573 36.4914 30.5399 37.0666 29.9737C37.3654 29.6798 37.6032 29.329 37.7661 28.9417C37.929 28.5545 38.0137 28.1385 38.0154 27.718V14.7635H38.0105ZM21.9089 29.6018C21.4437 29.6019 20.9956 29.4257 20.6537 29.1084C20.2329 28.7202 20.0532 28.1996 20.0532 27.6796V14.7802C20.0545 14.4818 20.1256 14.188 20.261 13.9226C20.2815 13.8831 20.303 13.8444 20.3254 13.8065C20.343 13.7776 20.36 13.749 20.3804 13.7211C20.3901 13.7062 20.4002 13.6915 20.4109 13.6769L20.431 13.6497C20.4549 13.6169 20.4805 13.5849 20.5072 13.5535C20.5266 13.5309 20.5467 13.5086 20.5671 13.4866C20.5782 13.4748 20.5896 13.4629 20.6017 13.4518C20.9566 13.0946 21.456 12.904 21.8649 12.904H24.4966V16.0403L27.7515 18.0385V16.5749L25.7397 15.3381V12.904L32.1841 16.8544L23.2545 22.3283V27.511L26.6677 29.6018H21.9089ZM32.3459 20.627L26.5569 24.1742L24.5928 22.9709L32.34 18.2218V20.6263L32.3459 20.627ZM36.7695 27.7173C36.771 28.2124 36.5785 28.6882 36.2338 29.0415L36.1992 29.0763C35.8553 29.4143 35.3937 29.6034 34.9131 29.6032H32.3372V24.8116L31.0958 25.5727V30.8578L31.0754 30.8452L31.0276 30.816L29.5653 29.9158L29.5584 29.9116L24.4959 26.8102V24.3757L29.8527 27.6549V26.1912L27.7508 24.9057L33.5827 21.3331V16.2494L33.421 16.1504L33.3788 16.1243L32.8376 15.7925L28.1262 12.904H34.9131C35.0994 12.9049 35.2846 12.9341 35.4623 12.9904C35.5059 13.004 35.5485 13.0193 35.5904 13.036C35.6181 13.0472 35.6458 13.059 35.6732 13.0709L35.7137 13.09C35.7407 13.1033 35.7674 13.1169 35.7933 13.1312L35.8325 13.1531C35.9738 13.2353 36.1039 13.3356 36.2196 13.4514C36.2404 13.4723 36.2608 13.4939 36.2809 13.5159C36.301 13.5378 36.32 13.5598 36.3394 13.5828C36.3581 13.6054 36.3765 13.6288 36.3945 13.6525L36.4208 13.6873C36.6441 14.0006 36.7661 14.3755 36.7702 14.761L36.7695 27.7173Z" fill="#EAEAEA"/>
<path d="M20.5648 13.487C20.5444 13.509 20.5243 13.5313 20.5053 13.5539C20.5247 13.5313 20.5447 13.509 20.5652 13.487C20.5763 13.4751 20.5877 13.4633 20.5998 13.4521L20.5648 13.487ZM20.2598 13.9233C20.2803 13.8838 20.3018 13.8451 20.3242 13.8073C20.3009 13.8454 20.2794 13.884 20.2598 13.9233Z" fill="#EAEAEA"/>
</svg>
