<svg width="10" height="10" viewBox="0 0 10 10" fill="none" xmlns="http://www.w3.org/2000/svg">
<g clip-path="url(#clip0_19_13105)">
<path d="M9.8447 7.68219L9.20378 7.25176L8.70786 6.59399L9.17289 5.94369L8.78551 5.5853L8.31955 3.96284L8.65732 3.00938L8.48705 2.33011L6.26051 1.43592L5.61262 1.60588L5.30478 1.9633L4.87436 2.08026L4.77424 2.41057L3.87132 2.55842L2.49678 1.87722L1.92509 0.560724L1.25613 1.02388L0.753664 0.924686L0.484202 0.49707L0.078125 0.601878L0.313933 2.26926L0.902433 3.26019L0.651663 3.53715L0.626394 4.28103L0.887433 4.7208L1.55178 5.29249L1.56955 5.98769L2.05143 6.65576L2.83739 6.52196L3.65613 8.00596L4.84351 8.71615L5.45359 8.83965L6.31159 8.38023L6.69428 8.58699L6.88797 9.25226L7.98832 9.42161L9.01009 9.50303L9.3432 9.43284L9.43582 8.82276L9.92424 8.53084L9.8447 7.68219Z" fill="#FF9606"/>
</g>
<defs>
<clipPath id="clip0_19_13105">
<rect width="10" height="10" fill="white"/>
</clipPath>
</defs>
</svg>
