<svg width="12" height="11" viewBox="0 0 12 11" fill="none" xmlns="http://www.w3.org/2000/svg">
<path d="M4.4375 5.48743L5.58227 6.63694L7.87655 4.33789" stroke="#7F84F7" strokeLinecap="round" strokeLinejoin="round"/>
<path d="M5.56019 0.950425C5.88794 0.670171 6.4247 0.670171 6.7572 0.950425L7.50771 1.59643C7.65022 1.71994 7.91622 1.81969 8.10622 1.81969H8.91373C9.41724 1.81969 9.8305 2.23294 9.8305 2.73645V3.54396C9.8305 3.72922 9.93025 3.99997 10.0538 4.14247L10.6998 4.89296C10.98 5.22071 10.98 5.75747 10.6998 6.08998L10.0538 6.84049C9.93025 6.98299 9.8305 7.24899 9.8305 7.439V8.24651C9.8305 8.75001 9.41724 9.16327 8.91373 9.16327H8.10622C7.92097 9.16327 7.65022 9.26302 7.50771 9.38652L6.7572 10.0325C6.42945 10.3128 5.89269 10.3128 5.56019 10.0325L4.80967 9.38652C4.66717 9.26302 4.40117 9.16327 4.21117 9.16327H3.3894C2.8859 9.16327 2.47264 8.75001 2.47264 8.24651V7.43425C2.47264 7.24899 2.37289 6.98299 2.25414 6.84049L1.61288 6.08523C1.33737 5.75747 1.33737 5.22546 1.61288 4.89771L2.25414 4.14247C2.37289 3.99997 2.47264 3.73397 2.47264 3.54871V2.7317C2.47264 2.22819 2.8859 1.81494 3.3894 1.81494H4.21117C4.39642 1.81494 4.66717 1.71519 4.80967 1.59168L5.56019 0.950425Z" stroke="#7F84F7" strokeLinecap="round" strokeLinejoin="round"/>
</svg>
