<svg width="10" height="10" viewBox="0 0 10 10" fill="none" xmlns="http://www.w3.org/2000/svg">
<g clip-path="url(#clip0_19_13095)">
<path d="M9.99748 1.62116C9.99657 1.40265 9.95149 1.18661 9.86498 0.986194C9.69632 0.591425 9.37966 0.279594 8.98383 0.118467C8.79368 0.0404391 8.59033 0.000209546 8.38498 0L1.59213 0C1.37582 0.00324277 1.16253 0.0515477 0.965695 0.14187C0.578444 0.312893 0.273949 0.630873 0.118436 1.02665C0.0411153 1.21835 0.00091539 1.42316 4.15638e-07 1.63005V8.34528C-0.00015874 8.57389 0.0453916 8.80019 0.133939 9.01072C0.222821 9.22213 0.35608 9.41169 0.52458 9.56641L0.523498 9.56768C0.671016 9.70479 0.842528 9.81318 1.02933 9.88734C1.2156 9.96139 1.41402 9.99961 1.6143 10H8.3857C8.80456 9.99959 9.20665 9.83434 9.50607 9.53956C9.66165 9.38655 9.78545 9.20393 9.87024 9.00233C9.95504 8.80072 9.99915 8.58416 10 8.36523V1.62116H9.99748ZM1.61502 9.34598C1.37287 9.346 1.13958 9.25429 0.961549 9.08909C0.742524 8.88699 0.648965 8.61595 0.648965 8.34528V1.62987C0.649614 1.47455 0.686672 1.32158 0.757126 1.1834C0.767821 1.16284 0.778998 1.1427 0.790655 1.12298C0.799849 1.10793 0.808682 1.09305 0.819318 1.07854C0.824365 1.07074 0.829593 1.06312 0.835182 1.0555L0.845637 1.04135C0.858075 1.02429 0.871415 1.0076 0.885296 0.991274C0.895391 0.979481 0.905846 0.967871 0.916482 0.956441C0.922251 0.950273 0.9282 0.944105 0.934509 0.938299C1.11928 0.752345 1.37923 0.653109 1.59213 0.653109H2.96216V2.28588L4.65668 3.32614V2.56418L3.60932 1.92032V0.653109L6.96429 2.70968L2.31554 5.55941V8.25747L4.09244 9.34598H1.61502ZM7.04847 4.67372L4.03476 6.52038L3.01228 5.89394L7.04541 3.42156V4.67336L7.04847 4.67372ZM9.3514 8.36487C9.35218 8.62264 9.25198 8.87034 9.07252 9.05426L9.0545 9.0724C8.87548 9.24832 8.63518 9.34678 8.38498 9.34671H7.04397V6.8522L6.39771 7.24842V9.99982L6.38707 9.99329L6.36219 9.97805L5.60092 9.50944L5.59732 9.50727L2.9618 7.89264V6.62524L5.75055 8.3324V7.57044L4.65632 6.90118L7.69239 5.04127V2.39473L7.60821 2.34321L7.58621 2.3296L7.30445 2.15689L4.85173 0.653109H8.38498C8.48198 0.653627 8.57836 0.668793 8.67089 0.6981C8.6936 0.705176 8.71577 0.713158 8.73759 0.721866C8.75201 0.727672 8.76643 0.73384 8.78067 0.740008L8.80176 0.749986C8.81582 0.75688 8.8297 0.763956 8.84322 0.771394L8.86359 0.782823C8.93715 0.82561 9.0049 0.87781 9.06513 0.938118C9.07595 0.949003 9.08658 0.960251 9.09704 0.971681C9.10749 0.98311 9.11741 0.994539 9.1275 1.00651C9.13724 1.01831 9.14679 1.03046 9.15617 1.0428L9.16987 1.06094C9.28611 1.22403 9.34962 1.41919 9.35176 1.61989L9.3514 8.36487Z" fill="#84BA52"/>
<path d="M0.916629 0.956618C0.905993 0.968048 0.895537 0.979659 0.885622 0.991451C0.895717 0.979659 0.906173 0.968048 0.916809 0.956618C0.922577 0.95045 0.928526 0.944282 0.934836 0.938477L0.916629 0.956618ZM0.757812 1.18376C0.768508 1.16319 0.779685 1.14306 0.791342 1.12334C0.779204 1.14318 0.768028 1.16332 0.757812 1.18376Z" fill="#84BA52"/>
</g>
<defs>
<clipPath id="clip0_19_13095">
<rect width="10" height="10" fill="white"/>
</clipPath>
</defs>
</svg>
