<svg width="18" height="18" viewBox="0 0 18 18" fill="none" xmlns="http://www.w3.org/2000/svg">
    <path d="M17.9969 2.93601C17.9953 2.54317 17.9142 2.15478 17.7587 1.79446C17.4555 1.08475 16.8862 0.524138 16.1746 0.234464C15.8327 0.0941858 15.4671 0.0218611 15.098 0.0214844L2.88576 0.0214844C2.49689 0.0273142 2.11343 0.114157 1.75956 0.276538C1.06336 0.584004 0.515944 1.15567 0.236363 1.8672C0.0973546 2.21184 0.0250832 2.58004 0.0234382 2.95199V15.0246C0.0231521 15.4356 0.105042 15.8425 0.264234 16.221C0.424025 16.601 0.663598 16.9418 0.966527 17.22L0.964583 17.2223C1.22979 17.4688 1.53814 17.6636 1.87397 17.7969C2.20884 17.9301 2.56557 17.9988 2.92563 17.9995H15.0993C15.8523 17.9987 16.5752 17.7017 17.1134 17.1717C17.3932 16.8966 17.6157 16.5683 17.7682 16.2059C17.9206 15.8434 17.9999 15.4541 18.0014 15.0605V2.93601H17.9969ZM2.92692 16.8237C2.49158 16.8237 2.07217 16.6589 1.75211 16.3619C1.35835 15.9985 1.19015 15.5112 1.19015 15.0246V2.95166C1.19131 2.67244 1.25794 2.39743 1.3846 2.149C1.40383 2.11203 1.42392 2.07583 1.44488 2.04039C1.46141 2.01331 1.47729 1.98657 1.49641 1.96048C1.50548 1.94645 1.51488 1.93275 1.52493 1.91906L1.54372 1.89362C1.56609 1.86296 1.59007 1.83295 1.61502 1.8036C1.63317 1.7824 1.65197 1.76152 1.67109 1.74097C1.68146 1.72989 1.69216 1.7188 1.7035 1.70836C2.03569 1.37405 2.50302 1.19564 2.88576 1.19564H5.34881V4.13104L8.39522 6.00121V4.63136L6.51228 3.47384V1.19564L12.5438 4.89294L4.18632 10.0162V14.8668L7.38083 16.8237H2.92692ZM12.6952 8.42389L7.27712 11.7438L5.43891 10.6176L12.6897 6.17277V8.42324L12.6952 8.42389ZM16.8354 15.0598C16.8368 15.5233 16.6567 15.9686 16.334 16.2992L16.3016 16.3319C15.9798 16.6481 15.5478 16.8251 15.098 16.825H12.6871V12.3404L11.5252 13.0527V17.9992L11.5061 17.9874L11.4614 17.96L10.0928 17.1176L10.0863 17.1136L5.34817 14.2109V11.9323L10.3618 15.0015V13.6316L8.39457 12.4284L13.8528 9.08469V4.32673L13.7015 4.23411L13.6619 4.20964L13.1554 3.89914L8.74588 1.19564H15.098C15.2723 1.19657 15.4456 1.22384 15.612 1.27653C15.6528 1.28925 15.6927 1.3036 15.7319 1.31926C15.7578 1.32969 15.7837 1.34078 15.8093 1.35187L15.8472 1.36981C15.8725 1.3822 15.8975 1.39492 15.9218 1.4083L15.9584 1.42884C16.0907 1.50577 16.2124 1.59961 16.3207 1.70803C16.3402 1.7276 16.3593 1.74782 16.3781 1.76837C16.3969 1.78892 16.4147 1.80947 16.4329 1.83099C16.4504 1.85219 16.4675 1.87405 16.4844 1.89622L16.509 1.92884C16.718 2.22204 16.8322 2.57291 16.836 2.93372L16.8354 15.0598Z"
          fill="white"/>
    <path d="M1.66833 1.74062C1.64921 1.76117 1.63041 1.78205 1.61259 1.80325C1.63074 1.78205 1.64954 1.76117 1.66866 1.74062C1.67903 1.72953 1.68972 1.71844 1.70106 1.70801L1.66833 1.74062ZM1.38281 2.14897C1.40204 2.11201 1.42213 2.0758 1.44309 2.04036C1.42127 2.07602 1.40118 2.11222 1.38281 2.14897Z"
          fill="white"/>
</svg>
